<svg width="20" height="20" viewBox="0 0 20 20" fill="none" xmlns="http://www.w3.org/2000/svg">
<path d="M18.5303 17.4697L13.447 12.3865C14.4164 11.1851 15 9.66003 15 8C15 4.14062 11.8594 1 8 1C4.14062 1 1 4.14061 1 7.99999C1 11.8594 4.14062 15 8 15C9.66003 15 11.1851 14.4164 12.3865 13.447L17.4697 18.5303C17.6162 18.6767 17.8076 18.75 18 18.75C18.1924 18.75 18.3838 18.6768 18.5303 18.5303C18.8232 18.2373 18.8232 17.7627 18.5303 17.4697ZM8 13.5C4.96777 13.5 2.5 11.0322 2.5 7.99999C2.5 4.96776 4.96777 2.49999 8 2.49999C11.0322 2.49999 13.5 4.96776 13.5 7.99999C13.5 11.0322 11.0322 13.5 8 13.5Z" fill="#292929"/>
</svg>
