<svg xmlns="http://www.w3.org/2000/svg" width="20" height="20" viewBox="0 0 20 20">
  <g id="S2_Icon_Share_20_N">
    <rect id="Rectangle_9" width="20" height="20" fill="rgba(255,255,255,0)"/>
    <g id="Group_15">
      <path fill="currentColor" d="M13.527,5.49l-3-3a.75.75,0,0,0-1.06,0l-3,3A.75.75,0,1,0,7.528,6.551L9.25,4.829V13.01a.75.75,0,0,0,1.5,0V4.837l1.718,1.715A.75.75,0,1,0,13.527,5.49Z"/>
      <path fill="currentColor" d="M15.75,18.021H4.25A2.252,2.252,0,0,1,2,15.771v-5.75a.75.75,0,1,1,1.5,0v5.75a.751.751,0,0,0,.75.75h11.5a.751.751,0,0,0,.75-.75v-5.75a.75.75,0,1,1,1.5,0v5.75A2.252,2.252,0,0,1,15.75,18.021Z"/>
    </g>
  </g>
</svg>
