<svg width="20" height="20" viewBox="0 0 20 20" fill="none" xmlns="http://www.w3.org/2000/svg">
<path d="M10 5C10.5523 5 11 4.55228 11 4C11 3.44772 10.5523 3 10 3C9.44772 3 9 3.44772 9 4C9 4.55228 9.44772 5 10 5Z" fill="#292929"/>
<path d="M15.75 18H4.25C3.00977 18 2 16.9902 2 15.75V6.24996C2 5.00973 3.00977 3.99996 4.25 3.99996H6.50195C6.52832 3.07516 6.90918 2.21676 7.58105 1.57418C8.27734 0.908156 9.20019 0.557576 10.1572 0.608356C11.9101 0.684526 13.3516 2.17965 13.4893 3.99996H15.75C16.9902 3.99996 18 5.00973 18 6.24996V15.75C18 16.9902 16.9902 18 15.75 18ZM4.25 5.49996C3.83691 5.49996 3.5 5.83687 3.5 6.24996V15.75C3.5 16.163 3.83691 16.5 4.25 16.5H15.75C16.1631 16.5 16.5 16.163 16.5 15.75V6.24996C16.5 5.83687 16.1631 5.49996 15.75 5.49996H15V6.74996C15 7.99019 13.9902 8.99996 12.75 8.99996H7.25C6.00977 8.99996 5 7.99019 5 6.74996L4.96387 5.49996H4.25ZM6.5 5.49996V6.74996C6.5 7.16305 6.83691 7.49996 7.25 7.49996H12.75C13.1631 7.49996 13.5 7.16305 13.5 6.74996V5.49996H12.75C12.3359 5.49996 12 5.16402 12 4.74996V4.28414C12 3.12887 11.1435 2.1523 10.0918 2.10641C9.53418 2.09371 9.01563 2.27731 8.61817 2.65817C8.21973 3.03903 8.00001 3.5527 8.00001 4.10446V4.74997C8.00001 5.16403 7.66407 5.49997 7.25001 5.49997L6.5 5.49996Z" fill="#292929"/>
</svg>
