<svg width="20" height="20" viewBox="0 0 20 20" fill="none" xmlns="http://www.w3.org/2000/svg">
<g transform="translate(2, 2)">
<path d="M2.24902 16.0079C1.85107 16.0079 1.45361 15.9005 1.0957 15.6866C0.40966 15.2765 0 14.5538 0 13.755V2.25303C0 1.4542 0.40967 0.731548 1.0957 0.321388C1.78125 -0.0877916 2.61084 -0.108301 3.31494 0.271589L14.0161 6.02257C14.7466 6.41515 15.2002 7.17491 15.2002 8.00402C15.2002 8.83313 14.7466 9.59289 14.0161 9.98547L3.31494 15.7364C2.97851 15.9181 2.61328 16.0079 2.24902 16.0079ZM2.25244 1.5001C2.07422 1.5001 1.93408 1.56846 1.86523 1.60948C1.75537 1.67491 1.5 1.86925 1.5 2.25303V13.755C1.5 14.1388 1.75537 14.3331 1.86523 14.3985C1.97509 14.464 2.2666 14.5968 2.60498 14.4161L13.3057 8.66513C13.6616 8.47275 13.7002 8.13876 13.7002 8.004C13.7002 7.86924 13.6616 7.53525 13.3057 7.34287L2.60498 1.5919C2.47852 1.52452 2.35889 1.5001 2.25244 1.5001Z" fill="currentColor"/>
</g>
</svg>
