<svg width="20" height="20" viewBox="0 0 20 20" fill="none" xmlns="http://www.w3.org/2000/svg">
<path d="M10 18.7793C5.1748 18.7793 1.25 14.8545 1.25 10.0293C1.25 5.2041 5.1748 1.2793 10 1.2793C14.8252 1.2793 18.75 5.2041 18.75 10.0293C18.75 14.8545 14.8252 18.7793 10 18.7793ZM10 2.7793C6.00195 2.7793 2.75 6.03125 2.75 10.0293C2.75 14.0273 6.00195 17.2793 10 17.2793C13.998 17.2793 17.25 14.0273 17.25 10.0293C17.25 6.03125 13.998 2.7793 10 2.7793Z" fill="#292929"/>
<path d="M13.25 10.75H6.75C6.33594 10.75 6 10.4141 6 10C6 9.58594 6.33594 9.25 6.75 9.25H13.25C13.6641 9.25 14 9.58594 14 10C14 10.4141 13.6641 10.75 13.25 10.75Z" fill="#292929"/>
</svg>
