<svg width="20" height="20" viewBox="0 0 20 20" fill="none" xmlns="http://www.w3.org/2000/svg">
<path d="M14.5264 7.4668L10.5234 3.46973C10.2295 3.17578 9.75489 3.17774 9.46289 3.46973L5.46582 7.4668C5.17285 7.75977 5.17285 8.23438 5.46582 8.52735C5.6123 8.67383 5.80371 8.74708 5.99609 8.74708C6.18847 8.74708 6.37988 8.67384 6.52636 8.52735L9.24999 5.80372V15.75C9.24999 16.1641 9.58593 16.5 9.99999 16.5C10.4141 16.5 10.75 16.1641 10.75 15.75V5.81616L13.4658 8.52734C13.7598 8.82129 14.2344 8.81933 14.5264 8.52734C14.8193 8.23437 14.8193 7.7588 14.5264 7.4668Z" fill="#292929"/>
</svg>
