<svg width="20" height="20" viewBox="0 0 20 20" fill="none" xmlns="http://www.w3.org/2000/svg">
<g id="S2_Icon_Publish_20_N">
  <path d="M18.7793 1.21876C18.5674 1.00782 18.252 0.943371 17.9746 1.05274L1.47461 7.56153C1.20508 7.667 1.02149 7.91993 1.00195 8.20899C0.982406 8.49805 1.13086 8.77247 1.38379 8.91309L7.63867 12.4082L11.1601 18.6201C11.2939 18.8555 11.5439 19 11.8125 19C11.8301 19 11.8486 18.999 11.8662 18.9981C12.1553 18.9775 12.4062 18.792 12.5107 18.5225L18.9482 2.02247C19.0566 1.74513 18.9902 1.42872 18.7793 1.21876ZM15.1691 3.77149L8.05615 10.9231L3.49707 8.37598L15.1691 3.77149ZM11.6875 16.5078L9.12109 11.9812L16.2495 4.81397L11.6875 16.5078Z" fill="currentColor"/>
</g>
</svg>
