<svg width="20" height="20" viewBox="0 0 20 20" fill="none" xmlns="http://www.w3.org/2000/svg">
<g id="S2_Icon_OpenIn_20_N">
  <path fill="currentColor" d="M18 15.75V4.25C18 3.00928 16.9907 2 15.75 2H4.25C3.00928 2 2 3.00928 2 4.25V7.96777C2 8.38183 2.33594 8.71777 2.75 8.71777C3.16406 8.71777 3.5 8.38183 3.5 7.96777V4.25C3.5 3.83643 3.83643 3.5 4.25 3.5H15.75C16.1636 3.5 16.5 3.83643 16.5 4.25V15.75C16.5 16.1636 16.1636 16.5 15.75 16.5H11.939C11.5249 16.5 11.189 16.8359 11.189 17.25C11.189 17.6641 11.5249 18 11.939 18H15.75C16.9907 18 18 16.9907 18 15.75Z"/>
  <path fill="currentColor" d="M11 9.75V13.9927C11 14.4067 10.6641 14.7427 10.25 14.7427C9.83594 14.7427 9.5 14.4067 9.5 13.9927V11.5605L3.03027 18.0303C2.88379 18.1768 2.69189 18.25 2.5 18.25C2.30811 18.25 2.11621 18.1768 1.96973 18.0303C1.67676 17.7373 1.67676 17.2627 1.96973 16.9697L8.43946 10.5H6.00733C5.59327 10.5 5.25733 10.1641 5.25733 9.75C5.25733 9.33594 5.59327 9 6.00733 9H10.25C10.6641 9 11 9.33594 11 9.75Z"/>
</g>
</svg>
