<svg width="500" height="488" xmlns="http://www.w3.org/2000/svg"><view id="AdobeExperienceCloud" viewBox="0 0 250 244"/><svg data-name="Layer 1" viewBox="-5 -5 250 244" width="250" height="244" xmlns="http://www.w3.org/2000/svg"><rect height="234" rx="42.5" width="240" fill="#fa0f00"/><path d="M186.617 175.95h-28.506a6.243 6.243 0 0 1-5.847-3.769l-30.947-72.359a1.364 1.364 0 0 0-2.611-.034L99.42 145.731a1.635 1.635 0 0 0 1.506 2.269h21.2a3.27 3.27 0 0 1 3.01 1.994l9.281 20.655a3.812 3.812 0 0 1-3.507 5.301H53.734a3.518 3.518 0 0 1-3.213-4.904l49.09-116.902A6.639 6.639 0 0 1 105.843 50h28.314a6.628 6.628 0 0 1 6.232 4.144l49.43 116.902a3.517 3.517 0 0 1-3.202 4.904z" data-name="256" fill="#fff"/></svg><view id="AdobeExperiencePlatform" viewBox="250 0 250 244"/><svg data-name="Layer 1" viewBox="-5 -5 250 244" width="250" height="244" x="250" xmlns="http://www.w3.org/2000/svg"><rect height="234" rx="42.5" width="240" fill="#000b1d"/><path d="M186.617 175.95h-28.506a6.243 6.243 0 0 1-5.847-3.769l-30.947-72.359a1.364 1.364 0 0 0-2.611-.034L99.42 145.731a1.635 1.635 0 0 0 1.506 2.269h21.2a3.27 3.27 0 0 1 3.01 1.994l9.281 20.655a3.812 3.812 0 0 1-3.507 5.301H53.734a3.518 3.518 0 0 1-3.213-4.904l49.09-116.902A6.639 6.639 0 0 1 105.843 50h28.314a6.628 6.628 0 0 1 6.232 4.144l49.43 116.902a3.517 3.517 0 0 1-3.202 4.904z" data-name="256" fill="#fa0f00"/></svg><view id="AdobeExperienceSubCloud" viewBox="0 244 250 244"/><svg data-name="Layer 1" viewBox="-5 -5 250 244" width="250" height="244" y="244" xmlns="http://www.w3.org/2000/svg"><rect height="234" rx="42.5" width="240" fill="#fff"/><path d="M186.617 175.95h-28.506a6.243 6.243 0 0 1-5.847-3.769l-30.947-72.359a1.364 1.364 0 0 0-2.611-.034L99.42 145.731a1.635 1.635 0 0 0 1.506 2.269h21.2a3.27 3.27 0 0 1 3.01 1.994l9.281 20.655a3.812 3.812 0 0 1-3.507 5.301H53.734a3.518 3.518 0 0 1-3.213-4.904l49.09-116.902A6.639 6.639 0 0 1 105.843 50h28.314a6.628 6.628 0 0 1 6.232 4.144l49.43 116.902a3.517 3.517 0 0 1-3.202 4.904z" data-name="256" fill="#fa0f00"/></svg><view id="WorkfrontHero" viewBox="250 244 110 110"/><svg data-name="18px@Icons" width="110" height="110" viewBox="-5 -5 110 110" x="250" y="244" xmlns="http://www.w3.org/2000/svg"><rect width="100" height="100" rx="16" ry="16" fill="#fff"/><path d="M83.95 48.428C80.463 36.14 68.012 18.636 68.012 18.636s-7.722-.92-17.982-.92-18.042.92-18.042.92S19.537 36.141 16.05 48.428c14.008 24.34 33.326 37.46 33.95 37.63.61-.168 18.872-13.071 33.95-37.63Z" fill="#d73320"/><path d="m48.933 56.324-4.636-3.54a.156.156 0 0 1 .1-.278H55.62c.147 0 .213.185.1.278l-4.636 3.54 1.228 3.59 8.964 1.572a.156.156 0 0 0 .177-.11l7.21-25.089-10.638 7.238.43 7.995c.01.18-.242.231-.303.062L53.77 39.119l14.962-5.129-7.687-4.254L50.01 33.5l-11.13-3.764-7.613 4.253 14.98 5.13-4.383 12.463c-.061.17-.313.118-.303-.062l.43-7.995-10.639-7.237 7.221 25.086a.156.156 0 0 0 .177.11l8.954-1.572 1.228-3.588Zm-6.093 6.572 1.906 5.007h10.508l1.907-5.007-7.162-1.117-7.16 1.117z" fill="#fff"/></svg></svg>