<?xml version="1.0" encoding="UTF-8"?><svg id="Layer_1" xmlns="http://www.w3.org/2000/svg" viewBox="0 0 128 128"><defs><style>.cls-1{fill:#fa0f00;}.cls-1,.cls-2{stroke-width:0px;}.cls-2{fill:#fff;}</style></defs><rect class="cls-2" y="1.6" width="128" height="124.8" rx="22.67" ry="22.67"/><path class="cls-1" d="M99.53,95.44h-15.2c-1.35.02-2.58-.77-3.12-2.01l-16.51-38.59c-.11-.39-.51-.61-.9-.5-.23.07-.42.25-.49.48l-10.29,24.5c-.19.44.02.96.47,1.14.11.04.22.07.34.07h11.31c.7,0,1.33.42,1.61,1.06l4.95,11.02c.44,1.03-.04,2.23-1.08,2.67-.25.11-.52.16-.79.16H28.66c-1.04,0-1.87-.85-1.87-1.89,0-.25.05-.5.15-.73l26.18-62.35c.55-1.35,1.87-2.23,3.32-2.21h15.1c1.46-.02,2.78.86,3.32,2.21l26.36,62.35c.41.95-.03,2.05-.98,2.46-.23.1-.47.15-.72.15h0Z"/></svg>