<svg viewBox="0 0 36 36" fill="currentColor" xmlns="http://www.w3.org/2000/svg" aria-hidden="true">
  <path fill-rule="evenodd" d="M31.7,4.3a7.176,7.176,0,0,0-10.148,0l-5.351,5.309a8.307,8.307,0,0,1,3.743.607l3.783-3.741a4.1,4.1,0,0,1,5.8,5.8L22.408,19.39a4.617,4.617,0,0,1-3.372,1.3,3.953,3.953,0,0,1-2.7-1.109,4.154,4.154,0,0,1-1.241-1.626l-1.635,1.712a7.144,7.144,0,0,0,1.226,1.673c2.8,2.8,7.875,2.364,10.677-.438L31.7,14.452A7.174,7.174,0,0,0,31.7,4.3Z"/>
  <path fill-rule="evenodd" d="M15.926,25.824,12.213,29.586a4.1,4.1,0,1,1-5.8-5.8L13.6,16.6a4.58,4.58,0,0,1,3.366-1.292A4.2,4.2,0,0,1,20.75,18.09l1.734-1.721a7.165,7.165,0,0,0-1.226-1.673,7.311,7.311,0,0,0-10.26.048L4.239,21.612A7.176,7.176,0,0,0,14.387,31.761l5.281-5.33A8.3,8.3,0,0,1,15.926,25.824Z"/>
</svg>


