<?xml version="1.0" encoding="UTF-8"?>
<svg xmlns="http://www.w3.org/2000/svg" viewBox="0 0 20 20">
  <g id="icon">
    <path fill="var(--da-favorite-ring, var(--s2-gray-75))" d="M18.89,7.64c-.42-1.3-1.58-2.19-2.95-2.25l-2.1-.1-.74-1.96c-.48-1.28-1.68-2.11-3.05-2.11s-2.57.83-3.05,2.11l-.74,1.96-2.1.1c-1.37.06-2.52.95-2.95,2.25-.42,1.3,0,2.7,1.06,3.55l1.64,1.31-.55,2.03c-.27.99-.07,2.02.55,2.83.62.81,1.59,1.29,2.6,1.29.63,0,1.25-.19,1.79-.54l1.77-1.16,1.74,1.14c.54.36,1.16.54,1.79.54,1.01,0,1.99-.48,2.6-1.3.62-.81.82-1.84.54-2.83l-.55-2.01,1.64-1.31c1.07-.86,1.49-2.25,1.06-3.55Z"/>
    <path fill="#ffc300" d="M15.61,7.38l-2.64-.13c-.46-.02-.87-.32-1.04-.75l-.94-2.48c-.21-.54-.69-.82-1.18-.82s-.97.27-1.18.82l-.94,2.48c-.16.43-.57.73-1.04.75l-2.64.13c-1.16.05-1.64,1.52-.73,2.24l2.07,1.66c.36.29.52.77.4,1.22l-.7,2.55c-.24.86.45,1.6,1.22,1.6.23,0,.47-.07.69-.21l2.23-1.46c.19-.13.42-.19.64-.19.22,0,.45.06.64.19l2.19,1.45c.22.15.46.21.69.21.77,0,1.46-.74,1.22-1.6l-.7-2.54c-.12-.45.03-.93.4-1.22l2.07-1.66c.91-.73.43-2.19-.73-2.24Z"/>
  </g>
</svg>
