<?xml version="1.0" encoding="UTF-8"?><svg id="Layer_1" xmlns="http://www.w3.org/2000/svg" viewBox="0 0 80 60"><defs><style>.cls-1{fill:#e5e5e5;}</style></defs><path class="cls-1" d="M40,60c-16.54,0-30-13.46-30-30S23.46,0,40,0s30,13.46,30,30-13.46,30-30,30ZM40,5.14c-13.71,0-24.86,11.15-24.86,24.86s11.15,24.86,24.86,24.86,24.86-11.15,24.86-24.86S53.71,5.14,40,5.14Z"/><path class="cls-1" d="M51.14,27.43h-8.57v-8.57c0-1.42-1.15-2.57-2.57-2.57s-2.57,1.15-2.57,2.57v8.57h-8.57c-1.42,0-2.57,1.15-2.57,2.57s1.15,2.57,2.57,2.57h8.57v8.57c0,1.42,1.15,2.57,2.57,2.57s2.57-1.15,2.57-2.57v-8.57h8.57c1.42,0,2.57-1.15,2.57-2.57s-1.15-2.57-2.57-2.57Z"/></svg>