<?xml version="1.0" encoding="UTF-8"?><svg id="Layer_1" xmlns="http://www.w3.org/2000/svg" viewBox="0 0 32 32"><defs><style>.cls-1{fill:#292929;}</style></defs><path class="cls-1" d="M15.97,22.66c-4.86,0-9.22-4.39-9.22-6.46,0-.92.86-2.36,2.2-3.67.29-.29.77-.28,1.06.01.29.3.28.77-.01,1.06-1.31,1.28-1.75,2.32-1.75,2.6,0,1.14,3.65,4.96,7.72,4.96.6,0,1.23-.09,1.86-.25.4-.1.81.13.92.53.11.4-.13.81-.53.92-.76.2-1.51.3-2.25.3Z"/><path class="cls-1" d="M22.6,19.82c-.2,0-.41-.08-.55-.24-.28-.31-.26-.78.05-1.06,1.14-1.04,1.65-1.98,1.65-2.32,0-.8-1.9-3.28-4.51-4.55-1.01-.51-2.13-.78-3.25-.8-.62,0-1.26.09-1.91.28-.4.11-.81-.12-.93-.51-.12-.4.11-.81.51-.93.78-.22,1.56-.34,2.33-.34,1.36.02,2.7.35,3.91.95,2.74,1.34,5.34,4.21,5.34,5.9,0,.92-.8,2.2-2.14,3.42-.14.13-.33.2-.51.2Z"/><path class="cls-1" d="M24.78,23.72l-5.78-5.78c.2-.3.36-.61.46-.95.21-.68-.46-1.25-1.12-.98-.5.21-.95.14-1.18.08l-1.37-1.37c-.09-.37-.08-.74.04-1.09.22-.64-.47-1.26-1.1-1.01-.24.09-.46.21-.68.36l-5.77-5.77c-.29-.29-.77-.29-1.06,0-.29.29-.29.77,0,1.06l16.5,16.5c.15.15.34.22.53.22s.38-.07.53-.22c.29-.29.29-.77,0-1.06Z"/><path class="cls-1" d="M14.2,18.98c.7.43,1.52.59,2.32.48l-3.98-3.98c-.17,1.32.39,2.7,1.66,3.5Z"/></svg>