<?xml version="1.0" encoding="UTF-8"?><svg id="Layer_1" xmlns="http://www.w3.org/2000/svg" viewBox="0 0 80 60"><defs><style>.cls-1{fill:#e5e5e5;}</style></defs><path class="cls-1" d="M76.51,44.6c-.17-6.23-4.83-11.7-10.91-12.92,0-1.65,0-3.3-.02-4.95-.01-3.39-.03-6.89.01-10.33.57-.59,1.44-1.43,2.37-2.31,2.07-1.97,4.42-4.2,5.13-5.43.92-1.58,1.01-3.55.23-5.28-.77-1.71-2.23-2.9-4-3.27-.66-.13-1.32-.12-1.96-.11h-7.55S59.1,0,59.1,0c-.58,0-1.15-.01-1.73,0h-.08c-2.2.42-3.97,1.81-4.75,3.72-.72,1.77-.47,3.73.69,5.39.96,1.37,5.8,6.06,7.37,7.33v13.81s0,.6,0,.6c0,.28,0,.56,0,.83-5.99,1.23-10.47,6.42-10.73,12.51-.03.82-.03,1.64-.02,2.46v.9s0,8.67,0,8.67c-.02,1.55.09,2.57.69,3.16.53.53,1.29.6,2.39.6.18,0,.36,0,.56,0h15.45s3.5,0,3.5,0c1.67,0,2.78,0,3.43-.66.58-.59.68-1.53.66-3.3v-2.62c0-.95,0-1.89.01-2.84.02-1.95.03-3.98-.02-5.96ZM68.81,6.14c-.18.27-.47.55-.76.81-.11.1-.22.2-.31.3l-3.1,3.05c-.53.52-1.06,1.05-1.59,1.58-.34-.33-.81-.79-1.35-1.3-1.44-1.39-4.13-3.97-4.37-4.38-.1-.24-.1-.47,0-.7.12-.26.36-.48.66-.59,1.5-.09,3.05-.06,4.56-.03.78.02,1.56.03,2.33.03.21,0,.49,0,.81-.01.84-.02,2.1-.05,2.53.05.21.04.44.28.56.58.1.25.11.48.02.62ZM60.67,36.72c0,.42-.03.97-.04,1.27-.01.25-.02.44-.02.53v2.45c0,.28,0,.59-.02.92-.02,1.11-.05,2.36.13,3.25.22,1.11,1.24,1.88,2.48,1.88h0c1.17,0,2.09-.72,2.3-1.78.16-.81.13-2,.11-3.05,0-.32-.01-.62-.01-.88v-1.93c0-.37,0-.75-.01-1.12,0-.5-.02-1.02,0-1.53,2.08.65,3.82,2.03,4.92,3.95,1.08,1.87,1.09,3.67,1.09,5.76v8.66c-.6-.01-1.2,0-1.81,0-.38,0-.76.01-1.13.01h-11.96c-.25,0-.51,0-.76-.01-.27,0-.55-.01-.83-.01-.1,0-.2,0-.29,0v-7.08c0-.38,0-.77-.01-1.15-.02-1.22-.04-2.49.16-3.65.53-3.07,2.75-5.56,5.73-6.48Z"/><path class="cls-1" d="M46.11,26.48c0-.24-.01-.48-.01-.7v-6.62c0-.94-.21-1.58-.65-2.01-.49-.49-1.18-.63-2.11-.65-.12-.65-.33-1.31-.52-1.91l-.04-.12C40.29,6.72,32.99-.72,23.84.04h-.02C15.28,1.09,9.16,6.93,6.54,16.5c-1.08,0-2.64.04-2.95,1.74-.25,1.4-.1,8.6-.04,9.74.1,1.98,1.61,2.19,2.94,2.24l2.29,16.06c.36,2.74.65,4.83.94,6.77l.02.14c.43,2.83.92,6.04,4.91,6.74.28.05.61.07.98.07s.76-.02,1.15-.03c.33-.01.64-.03.9-.03h14.71c.3,0,.62.02.94.03.86.04,1.76.07,2.58-.12,3.58-.84,4.2-3.73,4.53-6.61l2.6-19.38c.02-.12.05-.43.1-.83.1-.8.28-2.36.34-2.81.08-.01.18-.02.27-.03.7-.07,2-.19,2.26-1.58.13-.68.11-1.41.09-2.11ZM38.88,30.2c-.09.59-.16,1.19-.23,1.77l-.81,5.31-.56,4.2c-.5,3.72-1.01,7.56-1.46,11.34l-.05.46c-.15,1.45-.32,2.1-1.33,2.16-.89.06-1.87.04-2.81.03-.43,0-.86-.01-1.28-.01h-12.89c-.19,0-.38,0-.58.01-1.48.05-2.15-.05-2.34-1.11-1.13-6.38-1.91-12.36-2.74-18.69l-.14-1.1c-.03-.2-.09-.59-.16-1.06-.14-.88-.4-2.55-.46-3.3.17,0,.35,0,.53,0h25.74s.65,0,.65,0c.3,0,.61-.01.91,0ZM11.31,16.5c2.44-7.21,7.34-11.64,13.21-11.87,7.29-.29,12.22,5.66,14.03,11.87H11.31ZM41.54,25.67H8.1c0-.21,0-.46,0-.72-.02-1.27-.04-2.96,0-3.94h21.62c1.37,0,2.74,0,4.11.01,2.58,0,5.16.02,7.73,0v.08c.02,2.37.02,3.91,0,4.57Z"/></svg>