<?xml version="1.0" encoding="UTF-8"?><svg id="Layer_1" xmlns="http://www.w3.org/2000/svg" xmlns:xlink="http://www.w3.org/1999/xlink" viewBox="0 0 78 60"><defs><style>.cls-1{fill:none;}.cls-2{fill:url(#radial-gradient-3);}.cls-3{fill:url(#radial-gradient-2);}.cls-4{fill:url(#radial-gradient);}.cls-5{clip-path:url(#clippath);}</style><clipPath id="clippath"><path class="cls-1" d="M13.39,16.07c1.78,0,3.21-1.44,3.21-3.21s-1.44-3.21-3.21-3.21-3.21,1.44-3.21,3.21,1.44,3.21,3.21,3.21ZM68.36,0H9.64C4.33,0,0,4.33,0,9.64v40.71c0,5.32,4.33,9.64,9.64,9.64h58.71c5.32,0,9.64-4.33,9.64-9.64V9.64C78,4.33,73.67,0,68.36,0ZM6.43,9.64c0-1.77,1.44-3.21,3.21-3.21h58.71c1.77,0,3.21,1.44,3.21,3.21v9.64H6.43v-9.64ZM68.36,53.57H9.64c-1.77,0-3.21-1.44-3.21-3.21v-24.64h65.14v24.64c0,1.77-1.44,3.21-3.21,3.21Z"/></clipPath><radialGradient id="radial-gradient" cx="-910.89" cy="153.68" fx="-910.89" fy="153.68" r="1" gradientTransform="translate(15233.34 -58984.31) rotate(-66) scale(66)" gradientUnits="userSpaceOnUse"><stop offset="0" stop-color="#ff9300"/><stop offset=".12" stop-color="#ff9300"/><stop offset="1" stop-color="#ff9300" stop-opacity="0"/></radialGradient><radialGradient id="radial-gradient-2" cx="-902.1" cy="159.86" fx="-902.1" fy="159.86" r="1" gradientTransform="translate(26035.42 -32714.22) rotate(-41.54) scale(45.6 45.47)" gradientUnits="userSpaceOnUse"><stop offset="0" stop-color="red"/><stop offset="1" stop-color="red" stop-opacity="0"/></radialGradient><radialGradient id="radial-gradient-3" cx="-896.61" cy="149.45" fx="-896.61" fy="149.45" r="1" gradientTransform="translate(64772.29 -6988.49) scale(72.25 46.78)" gradientUnits="userSpaceOnUse"><stop offset="0" stop-color="#c0a0ff"/><stop offset=".47" stop-color="#c1a0ff" stop-opacity=".64"/><stop offset="1" stop-color="#c0a0ff" stop-opacity="0"/></radialGradient></defs><g class="cls-5"><path class="cls-4" d="M44.78-6.47C8.48-6.47-20.94,22.95-20.94,59.25S8.48,124.97,44.78,124.97s65.72-29.42,65.72-65.72S81.07-6.47,44.78-6.47Z"/><path class="cls-3" d="M96.45,33.54c18.77-16.63,20.54-45.28,3.96-64s-45.24-20.41-64.01-3.79C17.63-17.62,15.86,11.03,32.44,29.75s45.24,20.41,64.01,3.79Z"/><path class="cls-2" d="M4.25-40.55c-5.83-3.65-13.22-3.67-19.08-.06L-73.39-4.45c-5.74,3.54-5.74,11.9-.02,15.46L-15.23,47.13c5.85,3.63,13.24,3.62,19.08,0L61.9,10.97c5.7-3.55,5.71-11.86.02-15.42L4.25-40.55Z"/></g></svg>