<?xml version="1.0" encoding="UTF-8"?>
<svg xmlns="http://www.w3.org/2000/svg" viewBox="0 0 37.5 27">
  <g id="cloud_refresh">
    <path fill="currentColor" d="M30.22,8.75c-.25-.02-.5-.03-.75-.03-5.43,0-9.82,4.4-9.82,9.82,0,1.94.58,3.84,1.65,5.45H4.07C1.71,23.88-.11,21.87,0,19.51v-.04c.17-2.43,2.05-4.39,4.47-4.65-.14-.56-.19-1.14-.15-1.72.11-3.75,3.23-6.72,6.98-6.63.77,0,1.54.11,2.29.32C14.55,2.94,17.94.19,21.9.06c4.39-.21,8.12,3.18,8.33,7.57.01.23.01.46,0,.69,0,.14,0,.29-.02.43Z"/>
    <g transform="translate(21.79 10.96) scale(0.85)">
      <path fill="currentColor" d="M16.337,10H15.39a.6075.6075,0,0,0-.581.469A5.7235,5.7235,0,0,1,5.25,13.006l-.346-.3465L6.8815,10.682A.392.392,0,0,0,7,10.4a.4.4,0,0,0-.377-.4H1.25a.25.25,0,0,0-.25.25v5.375A.4.4,0,0,0,1.4,16a.3905.3905,0,0,0,.28-.118l1.8085-1.8085.178.1785a8.09048,8.09048,0,0,0,3.642,2.1655,7.715,7.715,0,0,0,9.4379-5.47434q.04733-.178.0861-.35816A.5.5,0,0,0,16.337,10Z" />
      <path fill="currentColor" d="M16.6,2a.3905.3905,0,0,0-.28.118L14.5095,3.9265l-.178-.1765a8.09048,8.09048,0,0,0-3.642-2.1655A7.715,7.715,0,0,0,1.25269,7.06072q-.04677.17612-.08519.35428A.5.5,0,0,0,1.663,8H2.61a.6075.6075,0,0,0,.581-.469A5.7235,5.7235,0,0,1,12.75,4.994l.346.3465L11.1185,7.318A.392.392,0,0,0,11,7.6a.4.4,0,0,0,.377.4H16.75A.25.25,0,0,0,17,7.75V2.377A.4.4,0,0,0,16.6,2Z" />
    </g>
    <rect fill="none" x="0" width="37.5" height="27" />
  </g>
</svg>
