<?xml version="1.0" encoding="UTF-8"?><svg id="Layer_1" xmlns="http://www.w3.org/2000/svg" viewBox="0 0 180 180"><defs><style>.cls-1{fill:#7659ff;}.cls-1,.cls-2{stroke-width:0px;}.cls-2{fill:#d0d4ff;}</style></defs><rect class="cls-2" y="0" width="180" height="180"/><path class="cls-1" d="M116.34,59.43h-52.67c-.97,0-1.76.79-1.76,1.76v38.63c0,.97.79,1.76,1.76,1.76h52.67c.97,0,1.76-.79,1.76-1.76v-38.63c0-.97-.79-1.76-1.76-1.76ZM114.58,93.44l-9.26-9.26c-1.37-1.37-3.59-1.37-4.97,0l-5.39,5.39-13.27-13.27c-1.37-1.37-3.59-1.37-4.97,0l-11.31,11.31v-24.68h49.16v30.5Z"/><circle class="cls-1" cx="105.27" cy="72.25" r="4.74"/><path class="cls-1" d="M63.08,120.43c-.11,0-.14-.04-.14-.14v-8.89c0-.07.03-.13.11-.13h1.49c.06,0,.08.04.08.1v7.54h4.1c.08,0,.11.04.1.1l-.24,1.31c-.01.1-.06.11-.12.11h-5.38Z"/><path class="cls-1" d="M77.86,115.8c.01,2.88-1.77,4.76-4.3,4.76-2.7,0-4.32-2.01-4.32-4.72s1.75-4.71,4.32-4.71c2.73,0,4.29,2.09,4.3,4.67ZM73.61,119.08c1.57,0,2.52-1.29,2.51-3.23,0-1.95-.96-3.22-2.59-3.22-1.48,0-2.55,1.16-2.55,3.22,0,1.8.92,3.23,2.63,3.23Z"/><path class="cls-1" d="M80.64,118.02l-.77,2.3c-.03.08-.07.11-.15.11h-1.39c-.08,0-.11-.04-.1-.14l2.87-8.16c.06-.14.1-.28.12-.75,0-.06.03-.1.08-.1h1.94c.07,0,.08.01.1.08l3.22,8.94c.01.08,0,.12-.08.12h-1.56c-.07,0-.11-.03-.14-.08l-.81-2.33h-3.33ZM83.52,116.5c-.29-.92-.95-2.86-1.23-3.83h-.01c-.22.93-.78,2.56-1.2,3.83h2.44Z"/><path class="cls-1" d="M87.64,111.4c0-.07.01-.1.1-.11.4-.01,1.35-.04,2.63-.04,3.27,0,4.92,1.85,4.92,4.44,0,3.4-2.59,4.76-4.95,4.76-.88,0-2.16,0-2.6-.03-.06,0-.1-.04-.1-.12v-8.9ZM89.33,118.98c.28.01.58.01.95.01,1.96,0,3.29-1.14,3.29-3.26s-1.32-3.02-3.21-3.02c-.39,0-.7.01-1.03.03v6.24Z"/><path class="cls-1" d="M98.53,120.3c0,.1-.03.12-.11.12h-1.46c-.08,0-.11-.04-.11-.12v-8.92c0-.1.04-.11.11-.11h1.46c.08,0,.11.03.11.11v8.92Z"/><path class="cls-1" d="M100.73,120.43c-.08,0-.12-.01-.12-.12v-8.93c0-.07.03-.1.1-.1h1.96c.11,0,.12.03.17.1,1.03,1.84,3.16,5.77,3.65,6.81h.01c-.01-.39-.04-.85-.04-2.16v-4.64c0-.07.04-.11.13-.11h1.34c.1,0,.13.04.13.13v8.9c0,.1-.04.12-.14.12h-1.77c-.1,0-.14-.03-.18-.1-.72-1.42-3.27-5.92-3.82-7.27h-.01c.06.71.07,1.32.07,2.59v4.65c0,.08-.03.12-.11.12h-1.35Z"/><path class="cls-1" d="M114.06,116.76c-.1-.01-.11-.04-.11-.12v-1.24c0-.07.04-.08.1-.08h3.15c.1,0,.11.03.11.11v4.54c.01.07-.01.11-.08.13-.97.38-1.94.47-2.74.47-3.26,0-4.89-2.08-4.89-4.65,0-2.9,2.06-4.78,5.14-4.78.93,0,1.75.1,2.26.33.06.03.08.08.08.17v1.34c0,.08-.06.1-.11.07-.63-.32-1.35-.4-2.17-.4-2.24-.03-3.46,1.2-3.46,3.22,0,1.81,1.11,3.23,3.23,3.23.47,0,.78-.04,1.06-.12v-2.16l-1.56-.04Z"/></svg>