<?xml version="1.0" encoding="UTF-8"?><svg id="Layer_1" xmlns="http://www.w3.org/2000/svg" viewBox="0 0 18 18"><defs><style>.cls-1,.cls-2{fill:none;stroke:#464646;stroke-linecap:round;stroke-linejoin:round;}.cls-3{fill:rgba(201,78,155,0);}.cls-3,.cls-4{stroke-width:0px;}.cls-2{stroke-dasharray:0 0 .93 2.8;}.cls-4{fill:#464646;}</style></defs><rect id="Canvas" class="cls-3" width="18" height="18"/><polyline class="cls-1" points="16.5 16 16.5 16.5 16 16.5"/><line class="cls-2" x1="13.2" y1="16.5" x2="3.4" y2="16.5"/><polyline class="cls-1" points="2 16.5 1.5 16.5 1.5 16"/><line class="cls-2" x1="1.5" y1="13.2" x2="1.5" y2="3.4"/><polyline class="cls-1" points="1.5 2 1.5 1.5 2 1.5"/><line class="cls-2" x1="4.8" y1="1.5" x2="14.6" y2="1.5"/><polyline class="cls-1" points="16 1.5 16.5 1.5 16.5 2"/><line class="cls-2" x1="16.5" y1="4.8" x2="16.5" y2="14.6"/><path id="Path_11" class="cls-4" d="M14.53,13.24c0,.19,0,.38.02.57,0,.02,0,.04-.02.05-.69.34-1.46.52-2.23.51-1.27,0-2.22-.62-2.22-1.88s1.18-1.83,2.67-1.83c.44,0,.69.01.82.02v-.29c.02-.65-.5-1.19-1.15-1.21-.07,0-.14,0-.2.01-.53,0-1.05.12-1.52.36-.03.01-.06,0-.08-.03,0,0,0-.02,0-.03v-.73s.02-.08.06-.1c.53-.24,1.11-.36,1.69-.35,1.11-.09,2.09.74,2.18,1.85.01.13,0,.27,0,.4v2.66ZM13.56,11.48c-.26-.03-.53-.05-.79-.05-1.16,0-1.72.39-1.72,1.06,0,.54.37,1.06,1.42,1.06.37,0,.74-.06,1.09-.2v-1.88Z"/></svg>