<?xml version="1.0" encoding="UTF-8"?>
<svg data-name="Layer 1" xmlns="http://www.w3.org/2000/svg" viewBox="0 0 20 20">
  <g id="S2_Icon_ExperiencePreview">
  <path fill="currentColor" d="M9.2,15.5h-2.12v-7.5h8.41v1.26c.55.17,1.05.43,1.5.77v-5.78c0-1.24-1.01-2.25-2.25-2.25H3.25c-1.24,0-2.25,1.01-2.25,2.25v10.5c0,1.24,1.01,2.25,2.25,2.25h6.77c-.34-.45-.6-.95-.77-1.5h-.05ZM2.5,4.25c0-.41.34-.75.75-.75h11.5c.41,0,.75.34.75.75v2.25H2.5v-2.25ZM5.59,15.5h-2.34c-.41,0-.75-.34-.75-.75v-6.75h3.09v7.5Z"/>
  
  <circle fill="currentColor" cx="4.12" cy="5" r=".75"/>
  <path fill="currentColor" d="M19.28,18.22l-1.97-1.97c.44-.64.69-1.41.69-2.25,0-2.21-1.79-4-4-4s-4,1.79-4,4,1.79,4,4,4c.83,0,1.61-.26,2.25-.69l1.97,1.97c.15.15.34.22.53.22s.38-.07.53-.22c.29-.29.29-.77,0-1.06ZM11.5,14c0-1.38,1.12-2.5,2.5-2.5s2.5,1.12,2.5,2.5-1.12,2.5-2.5,2.5-2.5-1.12-2.5-2.5Z"/>
  </g>
</svg>
