<?xml version="1.0" encoding="UTF-8"?>
<svg xmlns="http://www.w3.org/2000/svg" viewBox="0 0 20 20" width="20" height="20">
  <g id="S2_Icon_Experience_Add">
    <path fill="currentColor" d="M14.55,10c-2.46,0-4.45,1.99-4.45,4.45s1.99,4.45,4.45,4.45,4.45-1.99,4.45-4.45-1.99-4.45-4.45-4.45h0ZM17.05,14.7c0,.14-.11.25-.25.25h-1.75v1.75c0,.14-.11.25-.25.25h-.5c-.14,0-.25-.11-.25-.25v-1.75h-1.75c-.14,0-.25-.11-.25-.25v-.5c0-.14.11-.25.25-.25h1.75v-1.75c0-.14.11-.25.25-.25h.5c.14,0,.25.11.25.25v1.75h1.75c.14,0,.25.11.25.25v.5Z"/>
    <circle fill="currentColor" cx="4.12" cy="5" r=".75"/>
    <path fill="currentColor" d="M14.75,2H3.25c-1.24,0-2.25,1.01-2.25,2.25v10.5c0,1.24,1.01,2.25,2.25,2.25h6.49c-.25-.46-.43-.97-.53-1.5h-2.12v-7.5h8.41v1.09c.53.09,1.03.26,1.5.5v-5.34c0-1.24-1.01-2.25-2.25-2.25ZM5.59,15.5h-2.34c-.41,0-.75-.34-.75-.75v-6.75h3.09v7.5ZM15.5,6.5H2.5v-2.25c0-.41.34-.75.75-.75h11.5c.41,0,.75.34.75.75v2.25Z"/>
  </g>
</svg>
