<svg width="20" height="20" viewBox="0 0 20 20" fill="none" xmlns="http://www.w3.org/2000/svg">
<path d="M14.5898 2H5.41016C4.16944 2 3.16016 3.00977 3.16016 4.25V5.36035C3.16016 5.77441 3.4961 6.11035 3.91016 6.11035C4.32422 6.11035 4.66016 5.77441 4.66016 5.36035V4.25C4.66016 3.83691 4.99659 3.5 5.41016 3.5H9.25V16.5H7.68018C7.26612 16.5 6.93018 16.8359 6.93018 17.25C6.93018 17.6641 7.26612 18 7.68018 18H12.3198C12.7339 18 13.0698 17.6641 13.0698 17.25C13.0698 16.8359 12.7339 16.5 12.3198 16.5H10.75V3.5H14.5898C15.0034 3.5 15.3398 3.83691 15.3398 4.25V5.36035C15.3398 5.77441 15.6758 6.11035 16.0898 6.11035C16.5039 6.11035 16.8398 5.77441 16.8398 5.36035V4.25C16.8398 3.00977 15.8306 2 14.5898 2Z" fill="#292929"/>
</svg>
