<svg width="20" height="20" viewBox="0 0 20 20" fill="none" xmlns="http://www.w3.org/2000/svg">
<path d="M17.25 16.5215H7.25C6.83594 16.5215 6.5 16.1855 6.5 15.7715C6.5 15.3574 6.83594 15.0215 7.25 15.0215H17.25C17.6641 15.0215 18 15.3574 18 15.7715C18 16.1855 17.6641 16.5215 17.25 16.5215Z" fill="#292929"/>
<path d="M17.25 10.5215H7.25C6.83594 10.5215 6.5 10.1855 6.5 9.77148C6.5 9.35742 6.83594 9.02148 7.25 9.02148H17.25C17.6641 9.02148 18 9.35742 18 9.77148C18 10.1855 17.6641 10.5215 17.25 10.5215Z" fill="#292929"/>
<path d="M17.25 4.52148H7.25C6.83594 4.52148 6.5 4.18554 6.5 3.77148C6.5 3.35742 6.83594 3.02148 7.25 3.02148H17.25C17.6641 3.02148 18 3.35742 18 3.77148C18 4.18554 17.6641 4.52148 17.25 4.52148Z" fill="#292929"/>
<path d="M3.5 5.27109C4.32843 5.27109 5 4.59951 5 3.77109C5 2.94266 4.32843 2.27109 3.5 2.27109C2.67157 2.27109 2 2.94266 2 3.77109C2 4.59951 2.67157 5.27109 3.5 5.27109Z" fill="#292929"/>
<path d="M3.5 11.2711C4.32843 11.2711 5 10.5995 5 9.77109C5 8.94266 4.32843 8.27109 3.5 8.27109C2.67157 8.27109 2 8.94266 2 9.77109C2 10.5995 2.67157 11.2711 3.5 11.2711Z" fill="#292929"/>
<path d="M3.5 17.2711C4.32843 17.2711 5 16.5995 5 15.7711C5 14.9427 4.32843 14.2711 3.5 14.2711C2.67157 14.2711 2 14.9427 2 15.7711C2 16.5995 2.67157 17.2711 3.5 17.2711Z" fill="#292929"/>
</svg>
