<?xml version="1.0" encoding="UTF-8"?><svg id="Layer_1" xmlns="http://www.w3.org/2000/svg" viewBox="0 0 20 20">
  <path fill="#292929"
    d="M13.75,9.75c-2.49,0-4.5,2.01-4.5,4.5s2.01,4.5,4.5,4.5,4.5-2.01,4.5-4.5-2.01-4.5-4.5-4.5ZM16.25,14.88h-1.88v1.88c0,.35-.28.62-.62.62s-.62-.28-.62-.62v-1.88h-1.88c-.35,0-.62-.28-.62-.62s.28-.62.62-.62h1.88v-1.88c0-.35.28-.62.62-.62s.62.28.62.62v1.88h1.88c.35,0,.62.28.62.62s-.28.62-.62.62Z" />
  <path fill="#292929"
    d="M8.46,15.75h-.71v-3h.71c.15-.54.38-1.04.68-1.5h-1.39v-3h8.5v1.11c.56.29,1.07.67,1.5,1.13V3.5c0-1.24-1.01-2.25-2.25-2.25H4c-1.24,0-2.25,1.01-2.25,2.25v11.5c0,1.24,1.01,2.25,2.25,2.25h5.14c-.3-.46-.53-.96-.68-1.5ZM3.25,3.5c0-.41.34-.75.75-.75h11.5c.41,0,.75.34.75.75v3.25H3.25v-3.25ZM6.25,15.75h-2.25c-.41,0-.75-.34-.75-.75v-2.25h3v3ZM6.25,11.25h-3v-3h3v3Z" />
</svg>
