<svg width="20" height="20" viewBox="0 0 20 20" fill="none" xmlns="http://www.w3.org/2000/svg">
<path d="M7.74268 5.00001H16.1919L14.4722 3.28028C14.1792 2.98731 14.1792 2.5127 14.4722 2.21973C14.7651 1.92676 15.2397 1.92676 15.5327 2.21973L18.5303 5.21729C18.8232 5.50977 18.8232 5.98438 18.5308 6.27735L15.5332 9.27979C15.3867 9.42676 15.1948 9.5 15.0024 9.5C14.8106 9.5 14.6191 9.42676 14.4727 9.28076C14.1792 8.98828 14.1792 8.51318 14.4717 8.22021L16.1891 6.5H7.74268C5.26123 6.5 3.24219 8.51855 3.24219 11C3.24219 13.4814 5.26123 15.5 7.74268 15.5H11.4805C11.8945 15.5 12.2305 15.8359 12.2305 16.25C12.2305 16.6641 11.8945 17 11.4805 17H7.74268C4.43409 17 1.74219 14.3086 1.74219 11C1.74219 7.69141 4.43408 5.00001 7.74268 5.00001Z" fill="#292929"/>
</svg>
