<?xml version="1.0" encoding="UTF-8"?>
<svg id="Layer_1" xmlns="http://www.w3.org/2000/svg" viewBox="0 0 20 20">
  <path fill="#292929"
    d="M9.49,19.02c-.17,0-.34-.07-.46-.19-.17-.17-.23-.42-.16-.65l.95-3.16c.1-.32.27-.61.51-.85l4.18-4.18c.47-.47,1.12-.74,1.79-.74.54,0,1.06.18,1.46.51.52.43.84,1.06.87,1.72.03.67-.22,1.32-.69,1.8-.13.13-4.25,4.25-4.25,4.25-.23.24-.53.41-.85.51l-3.16.95c-.06.02-.12.03-.19.03ZM11.15,15.25s-.06.08-.08.14l-.6,2,2-.6c.06-.02.1-.05.14-.08l.1-.07-.04-.11-1.42-1.42-.09.14ZM16.3,10.54c-.32,0-.63.13-.86.37l-3.46,3.46,1.52,1.52s3.43-3.43,3.53-3.53c.22-.22.33-.51.31-.81-.01-.31-.16-.58-.4-.78-.18-.14-.4-.22-.64-.22Z" />
  <path fill="#292929"
    d="M15.5,1.25H4c-1.24,0-2.25,1.01-2.25,2.25v11.5c0,1.24,1.01,2.25,2.25,2.25h3.75c.41,0,.75-.34.75-.75s-.34-.75-.75-.75v-3h1.97c.41,0,.75-.34.75-.75s-.34-.75-.75-.75h-1.97v-3h9.25c.41,0,.75-.34.75-.75V3.5c0-1.24-1.01-2.25-2.25-2.25ZM3.25,8.25h3v3h-3v-3ZM5.75,15.75h-1.75c-.41,0-.75-.34-.75-.75v-2.25h3v3h-.5ZM16.25,5.5v1.25H3.25v-3.25c0-.41.34-.75.75-.75h11.5c.41,0,.75.34.75.75v2Z" />
</svg>
