<?xml version="1.0" encoding="UTF-8"?>
<svg xmlns="http://www.w3.org/2000/svg" viewBox="0 0 20 20" width="20" height="20">
  <g id="S2_Icon_Placeholder">
  <path fill="currentColor" d="M16.75,1h-2.75c-.41,0-.75.34-.75.75s.34.75.75.75h2.75c.41,0,.75.34.75.75v2.75c0,.41.34.75.75.75s.75-.34.75-.75v-2.75c0-1.24-1.01-2.25-2.25-2.25Z"/>
  <path fill="currentColor" d="M18.25,13.25c-.41,0-.75.34-.75.75v2.75c0,.41-.34.75-.75.75h-2.75c-.41,0-.75.34-.75.75s.34.75.75.75h2.75c1.24,0,2.25-1.01,2.25-2.25v-2.75c0-.41-.34-.75-.75-.75Z"/>
  <path fill="currentColor" d="M6,17.5h-2.75c-.41,0-.75-.34-.75-.75v-2.75c0-.41-.34-.75-.75-.75s-.75.34-.75.75v2.75c0,1.24,1.01,2.25,2.25,2.25h2.75c.41,0,.75-.34.75-.75s-.34-.75-.75-.75Z"/>
  <path fill="currentColor" d="M6,1h-2.75c-1.24,0-2.25,1.01-2.25,2.25v2.75c0,.41.34.75.75.75s.75-.34.75-.75v-2.75c0-.41.34-.75.75-.75h2.75c.41,0,.75-.34.75-.75s-.34-.75-.75-.75Z"/>
  <path fill="currentColor" d="M15.06,13.92c0,.23,0,.43.03.65,0,.03,0,.04-.03.05-.98.46-1.75.58-2.54.58-1.44,0-2.52-.71-2.52-2.13s1.34-2.08,3.02-2.08c.5,0,.79.01.94.03v-.33c0-.42-.2-1.36-1.53-1.36-.65,0-1.25.15-1.72.41-.04.01-.1,0-.1-.07v-.83c0-.05.03-.08.07-.11.53-.26,1.21-.41,1.93-.41,1.74,0,2.46,1.14,2.46,2.55v3.02ZM13.96,11.92c-.19-.03-.49-.05-.9-.05-1.32,0-1.95.45-1.95,1.21,0,.61.42,1.21,1.61,1.21.43,0,.84-.07,1.23-.23v-2.13Z"/>
  </g>
</svg>
