<svg width="20" height="20" viewBox="0 0 20 20" fill="none" xmlns="http://www.w3.org/2000/svg">
<path d="M12.2573 5.00001H3.80811L5.52784 3.28028C5.82081 2.98731 5.82081 2.5127 5.52784 2.21973C5.23487 1.92676 4.76026 1.92676 4.46729 2.21973L1.46973 5.21729C1.17676 5.50977 1.17676 5.98438 1.46924 6.27735L4.4668 9.27979C4.61328 9.42676 4.80518 9.5 4.99756 9.5C5.18945 9.5 5.38086 9.42676 5.52735 9.28076C5.82081 8.98828 5.82081 8.51318 5.52833 8.22021L3.81086 6.5H12.2573C14.7388 6.5 16.7578 8.51855 16.7578 11C16.7578 13.4814 14.7388 15.5 12.2573 15.5H8.51954C8.10548 15.5 7.76954 15.8359 7.76954 16.25C7.76954 16.6641 8.10548 17 8.51954 17H12.2573C15.5659 17 18.2578 14.3086 18.2578 11C18.2578 7.69141 15.5659 5.00001 12.2573 5.00001Z" fill="#292929"/>
</svg>
