<?xml version="1.0" encoding="UTF-8"?>
<svg id="Layer_1" data-name="Layer 1" xmlns="http://www.w3.org/2000/svg" viewBox="0 0 22 22">
  <g id="S2_Icon_FileFold">
    <circle fill="currentColor" cx="12" cy="17.77" r=".85"/>
    <circle fill="currentColor" cx="12" cy="14.38" r=".85"/>
    <circle fill="currentColor" cx="12" cy="11" r=".85"/>
    <path fill="currentColor" d="M20.74,7.8c-.04-.79-.33-1.42-.9-1.92-.9-.81-1.89-1.68-2.88-2.54-.62-.54-1.23-1.07-1.81-1.59l-.22-.19C13.92.65,13.31.11,11.97.04c-.5-.03-.99-.04-1.48-.04h-4.72c-1.4,0-2.54,1.14-2.54,2.54v16.92c0,1.4,1.14,2.54,2.54,2.54h12.46c1.4,0,2.54-1.14,2.54-2.54v-8.19c0-.68,0-2.95-.03-3.47ZM12.85,2.03c.25.16.53.41.97.79l.22.19c.59.52,1.2,1.06,1.82,1.6.83.73,1.66,1.45,2.44,2.16h-5.45V2.03ZM19.08,19.46c0,.47-.38.85-.85.85H5.77c-.47,0-.85-.38-.85-.85V2.54c0-.47.38-.85.85-.85h4.72c.31,0,.49,0,.67,0v5.92h0c0,.47.38.85.85.85h7.06c.01.86.01,2.3.01,2.81v8.19Z"/>
  </g>
</svg>
