<?xml version="1.0" encoding="UTF-8"?><svg id="Layer_1" xmlns="http://www.w3.org/2000/svg" viewBox="0 0 20 20"><defs><style>.cls-1{fill:#646464;}</style></defs><path class="cls-1" d="M18.16,15.62V4.12c0-1.24-1.01-2.25-2.25-2.25H4.41c-1.24,0-2.25,1.01-2.25,2.25v3.72c0,.41.34.75.75.75s.75-.34.75-.75v-3.72c0-.41.34-.75.75-.75h11.5c.41,0,.75.34.75.75v11.5c0,.41-.34.75-.75.75h-3.81c-.41,0-.75.34-.75.75s.34.75.75.75h3.81c1.24,0,2.25-1.01,2.25-2.25Z"/><path class="cls-1" d="M11.16,9.62v4.24c0,.41-.34.75-.75.75s-.75-.34-.75-.75v-2.43l-6.47,6.47c-.15.15-.34.22-.53.22s-.38-.07-.53-.22c-.29-.29-.29-.77,0-1.06l6.47-6.47h-2.43c-.41,0-.75-.34-.75-.75s.34-.75.75-.75h4.24c.41,0,.75.34.75.75Z"/></svg>
