<?xml version="1.0" encoding="UTF-8"?><svg id="Layer_1" xmlns="http://www.w3.org/2000/svg" viewBox="0 0 20 20"><defs><style>.cls-1{fill:#646464;}</style></defs><path class="cls-1" d="M15.75,3.37h-2v-1c0-.41-.34-.75-.75-.75s-.75.34-.75.75v1h-4.5v-1c0-.41-.34-.75-.75-.75s-.75.34-.75.75v1h-2c-1.24,0-2.25,1.01-2.25,2.25v10.5c0,1.24,1.01,2.25,2.25,2.25h11.5c1.24,0,2.25-1.01,2.25-2.25V5.62c0-1.24-1.01-2.25-2.25-2.25ZM4.25,4.87h2v.5c0,.41.34.75.75.75s.75-.34.75-.75v-.5h4.5v.5c0,.41.34.75.75.75s.75-.34.75-.75v-.5h2c.41,0,.75.34.75.75v1.75H3.5v-1.75c0-.41.34-.75.75-.75ZM15.75,16.88H4.25c-.41,0-.75-.34-.75-.75v-7.25h13v7.25c0,.41-.34.75-.75.75Z"/><path class="cls-1" d="M7,11.38c0-.55-.45-1-1-1s-1,.45-1,1,.45,1,1,1,1-.45,1-1Z"/><path class="cls-1" d="M11,11.38c0-.55-.45-1-1-1s-1,.45-1,1,.45,1,1,1,1-.45,1-1Z"/><path class="cls-1" d="M15,11.38c0-.55-.45-1-1-1s-1,.45-1,1,.45,1,1,1,1-.45,1-1Z"/><path class="cls-1" d="M7,14.38c0-.55-.45-1-1-1s-1,.45-1,1,.45,1,1,1,1-.45,1-1Z"/><path class="cls-1" d="M11,14.38c0-.55-.45-1-1-1s-1,.45-1,1,.45,1,1,1,1-.45,1-1Z"/><path class="cls-1" d="M15,14.38c0-.55-.45-1-1-1s-1,.45-1,1,.45,1,1,1,1-.45,1-1Z"/></svg>
