<svg width="20" height="20" viewBox="0 0 20 20" fill="none" xmlns="http://www.w3.org/2000/svg">
<path d="M2.75 15C2.33594 15 2 14.6641 2 14.25V4.25C2 3.00977 3.00928 2 4.25 2H14.25C14.6641 2 15 2.33594 15 2.75C15 3.16406 14.6641 3.5 14.25 3.5H4.25C3.83643 3.5 3.5 3.83691 3.5 4.25V14.25C3.5 14.6641 3.16406 15 2.75 15Z" fill="#292929"/>
<path d="M15.6299 5H7.37012C6.06299 5 5 6.06348 5 7.37012V15.6299C5 16.9365 6.06299 18 7.37012 18H15.6299C16.937 18 18 16.9365 18 15.6299V7.37012C18 6.06348 16.937 5 15.6299 5ZM16.5 15.6299C16.5 16.1094 16.1099 16.5 15.6299 16.5H7.37012C6.89014 16.5 6.5 16.1094 6.5 15.6299V7.37012C6.5 6.89063 6.89014 6.5 7.37012 6.5H11V10.6343C11 10.9907 11.4309 11.1692 11.6829 10.917L12.7172 9.88281C12.8734 9.72656 13.1266 9.72656 13.2828 9.88281L14.3171 10.917C14.5691 11.1692 15 10.9907 15 10.6343V6.5H15.6299C16.1098 6.5 16.5 6.89062 16.5 7.37012L16.5 15.6299Z" fill="#292929"/>
</svg>
