<?xml version="1.0" encoding="UTF-8"?>
<svg xmlns="http://www.w3.org/2000/svg" viewBox="0 0 20 20" id="S2_Icon_FileFold">
  <g id="S2_Icon_FileFold">
    <path fill="currentColor" d="M10,15.48c.41,0,.75-.34.75-.75s-.34-.75-.75-.75-.75.34-.75.75.34.75.75.75Z"/>
    <path fill="currentColor" d="M10,12.87c.41,0,.75-.34.75-.75s-.34-.75-.75-.75-.75.34-.75.75.34.75.75.75Z"/>
    <path fill="currentColor" d="M10,10.25c.41,0,.75-.34.75-.75s-.34-.75-.75-.75-.75.34-.75.75.34.75.75.75Z"/>
    <path fill="currentColor" d="M16.85,7.02c-.03-.64-.27-1.15-.73-1.55-.68-.61-1.42-1.26-2.22-1.97-.48-.42-1.57-1.38-1.57-1.38-.8-.71-1.28-1.14-2.35-1.2-.38-.02-.77-.03-1.15-.03h-3.64c-1.13,0-2.06.92-2.06,2.06v13.08c0,1.13.92,2.06,2.06,2.06h9.63c1.13,0,2.06-.92,2.06-2.06v-6.36c0-.56,0-2.26-.02-2.66ZM4.63,2.96c0-.31.25-.56.56-.56h4.07s0,4.48,0,4.48c0,.41.34.75.75.75h5.36c0,.61,0,1.52,0,1.96v6.44c0,.31-.25.56-.56.56H5.19c-.31,0-.56-.25-.56-.56V2.96ZM10.75,6.14v-3.38c.15.11.33.27.59.5,0,0,1.07.94,1.58,1.39.58.5,1.15,1.01,1.7,1.5h-3.87Z"/>
  </g>
</svg>
