<?xml version="1.0" encoding="UTF-8"?><svg id="Layer_1" xmlns="http://www.w3.org/2000/svg" viewBox="0 0 20 20"><defs><style>.cls-1{fill:#646464;}</style></defs><path class="cls-1" d="M16.47,18h-4.94c-.84,0-1.53-.76-1.53-1.7V7.7c0-.94.69-1.7,1.53-1.7h4.94c.84,0,1.53.76,1.53,1.7v8.59c0,.94-.69,1.7-1.53,1.7ZM16.43,7.49h-4.9s-.03.09-.03.21v8.59c0,.13.05.2.07.21h4.9s.03-.09.03-.21V7.7c0-.13-.05-.2-.07-.21Z"/><path class="cls-1" d="M14,15.82c.34,0,.62-.28.62-.64s-.28-.64-.62-.64-.62.28-.62.64.28.64.62.64Z"/><path class="cls-1" d="M7.75,13h-3.68c-1.14,0-2.07-.9-2.07-2.01v-6.98c0-1.11.93-2.01,2.07-2.01h11.68c1.24,0,2.25,1.01,2.25,2.25,0,.41-.34.75-.75.75s-.75-.34-.75-.75-.34-.75-.75-.75H4.07c-.31,0-.57.23-.57.51v6.98c0,.28.25.51.57.51h3.68c.41,0,.75.34.75.75s-.34.75-.75.75Z"/><path class="cls-1" d="M7.75,15.5h-1.5c-.41,0-.75-.34-.75-.75s.34-.75.75-.75h1.5c.41,0,.75.34.75.75s-.34.75-.75.75Z"/></svg>
