<?xml version="1.0" encoding="UTF-8"?><svg id="Layer_1" xmlns="http://www.w3.org/2000/svg" viewBox="0 0 20 20">
  <path fill="#292929" d="M19,10.75H1c-.41,0-.75-.34-.75-.75s.34-.75.75-.75h18c.41,0,.75.34.75.75s-.34.75-.75.75Z" />
  <path fill="#292929"
    d="M15.75,8.25H4.25c-1.24,0-2.25-1.01-2.25-2.25v-2.5c0-1.24,1.01-2.25,2.25-2.25h11.5c1.24,0,2.25,1.01,2.25,2.25v2.5c0,1.24-1.01,2.25-2.25,2.25ZM4.25,2.75c-.41,0-.75.34-.75.75v2.5c0,.41.34.75.75.75h11.5c.41,0,.75-.34.75-.75v-2.5c0-.41-.34-.75-.75-.75H4.25Z" />
  <path fill="#292929"
    d="M15.75,18.75H4.25c-1.24,0-2.25-1.01-2.25-2.25v-2.5c0-1.24,1.01-2.25,2.25-2.25h11.5c1.24,0,2.25,1.01,2.25,2.25v2.5c0,1.24-1.01,2.25-2.25,2.25ZM4.25,13.25c-.41,0-.75.34-.75.75v2.5c0,.41.34.75.75.75h11.5c.41,0,.75-.34.75-.75v-2.5c0-.41-.34-.75-.75-.75H4.25Z" />
</svg>
