<?xml version="1.0" encoding="UTF-8"?><svg id="Layer_1" xmlns="http://www.w3.org/2000/svg" viewBox="0 0 18 18"><defs><style>.cls-1{fill:rgba(255,19,220,0);}.cls-1,.cls-2{stroke-width:0px;}.cls-2{fill:#464646;}</style></defs><rect id="Canvas" class="cls-1" width="18" height="18"/><path class="cls-2" d="M15.51,15.11l-3.89-3.89c2.06-2.88,1.4-6.89-1.48-8.95C7.27.21,3.26.87,1.2,3.75-.86,6.63-.2,10.64,2.68,12.7c2.23,1.6,5.24,1.6,7.47,0l3.89,3.89c.45.37,1.11.31,1.48-.13.33-.39.33-.96,0-1.35ZM1.93,7.5c0-2.49,2.01-4.5,4.5-4.5s4.5,2.01,4.5,4.5-2.01,4.5-4.5,4.5S1.93,9.99,1.93,7.5Z"/></svg>