<?xml version="1.0" encoding="UTF-8"?><svg id="Layer_1" xmlns="http://www.w3.org/2000/svg" viewBox="0 0 18 18"><defs><style>.cls-1{fill:none;}.cls-2{fill:#464646;}</style></defs><path class="cls-2" d="M18,10.93c0,3.09-1.67,5.65-4.45,7.07l-.83-1.49c1.88-1.12,3.06-2.75,3.18-4.88-.25.12-.52.19-.81.19-1.26,0-2.17-.93-2.17-2.23,0-1.42.95-2.38,2.29-2.38,1.61,0,2.78,1.39,2.78,3.7h0ZM10.89,10.93c0,3.09-1.67,5.65-4.45,7.07l-.83-1.49c1.88-1.12,3.06-2.75,3.18-4.88-.25.12-.52.19-.81.19-1.26,0-2.17-.93-2.17-2.23,0-1.42.95-2.38,2.28-2.38,1.61,0,2.78,1.39,2.78,3.7h.01Z"/><path class="cls-1" d="M12.72,14.32c.24-.21.45-.42.62-.66-.13-.07-.25-.14-.37-.22-.07.29-.15.59-.25.87Z"/><path class="cls-2" d="M2,15.94V2h14v3.78c.35.05.69.13,1,.26V1.5c0-.28-.22-.5-.5-.5H1.5c-.28,0-.5.22-.5.5v14.94c0,.28.22.5.5.5h2.6l-.56-1h-1.54Z"/></svg>