<?xml version="1.0" encoding="UTF-8"?>
<svg id="Layer_1" data-name="Layer 1" xmlns="http://www.w3.org/2000/svg" viewBox="0 0 20 20" width="20">
  <g id="spectrum-AddCircle"></g>
  <path class="fill" d="M10,1.62C5.37,1.62,1.62,5.37,1.62,10s3.75,8.38,8.38,8.38,8.38-3.75,8.38-8.38S14.63,1.62,10,1.62ZM11,16.79v-2.7c0-.55-.45-1-1-1s-1,.45-1,1v2.7c-2.99-.44-5.35-2.8-5.79-5.79h2.7c.55,0,1-.45,1-1s-.45-1-1-1h-2.7c.44-2.99,2.8-5.35,5.79-5.79v2.69c0,.55.45,1,1,1s1-.45,1-1v-2.69c2.99.44,5.35,2.8,5.79,5.79h-2.7c-.55,0-1,.45-1,1s.45,1,1,1h2.7c-.44,2.99-2.8,5.35-5.79,5.79Z"/>
  <circle class="fill" cx="10" cy="10" r="1"/>
</svg>
