<?xml version="1.0" encoding="UTF-8"?><svg id="Layer_1" xmlns="http://www.w3.org/2000/svg" viewBox="0 0 18 18"><defs><style>.cls-1{fill:rgba(255,19,220,0);}.cls-2{fill:#464646;}</style></defs><rect id="Canvas" class="cls-1" width="18" height="18"/><path class="cls-2" d="m12.7,13.9c-.06,0-.09-.01-.09-.08v-.91c0-.08.03-.11.06-.16l2.69-4.75s.06-.06.14-.06h1.5s.09.01.09.07v4.72h.84c.08,0,.09.03.08.08l-.15,1.04s-.04.05-.09.05h-.67v1.76c0,.06-.04.09-.09.09h-1.11c-.06,0-.09-.04-.09-.09v-1.76h-3.1Zm3.1-2.26c0-1.25.05-2.07.08-2.52h-.01c-.25.64-1.5,2.91-1.87,3.64h1.81v-1.11Z"/><path class="cls-2" d="m11.5,3.75c.14,0,.25-.11.25-.25v-1c0-.14-.11-.25-.25-.25h-3c-.14,0-.25.11-.25.25v1c0,.14.11.25.25.25h.75v4.5H2.75V3.75h.75c.14,0,.25-.11.25-.25v-1c0-.14-.11-.25-.25-.25H.5c-.14,0-.25.11-.25.25v1c0,.14.11.25.25.25h.75v10.5h-.75c-.14,0-.25.11-.25.25v1c0,.14.11.25.25.25h3c.14,0,.25-.11.25-.25v-1c0-.14-.11-.25-.25-.25h-.75v-4.5h6.5v4.5h-.75c-.14,0-.25.11-.25.25v1c0,.14.11.25.25.25h3c.14,0,.25-.11.25-.25v-1c0-.14-.11-.25-.25-.25h-.75V3.75h.75Z"/></svg>