<?xml version="1.0" encoding="UTF-8"?>
<svg id="Icons" xmlns="http://www.w3.org/2000/svg" viewBox="0 0 18 18">
  <path fill="#464646" d="M15.89,3.1l.41-1.89c.02-.1-.02-.2-.11-.25-.04-.02-.08-.03-.12-.03-.06,0-.11.02-.16.06l-1.43,1.3-1.89-.41s-.04,0-.05,0c-.08,0-.16.04-.2.12-.05.09-.04.2.03.27l1.3,1.43-.41,1.89c-.02.1.02.2.11.25.04.02.08.03.12.03.06,0,.11-.02.16-.06l1.43-1.3,1.89.41s.03,0,.05,0c.08,0,.16-.04.2-.12.05-.09.04-.2-.03-.27l-1.3-1.43Z" />
  <path fill="#464646" d="M15.75,10.43c0,.55-.45,1-1,1h-5.91l-.29.29-3.29,3.29v-3.59h-2c-.55,0-1-.45-1-1v-6c0-.55.45-1,1-1h8.82l-.44-.49c-.14-.15-.21-.33-.26-.51H3.25c-1.1,0-2,.9-2,2v6c0,1.1.9,2,2,2h1v4.4c0,.14.11.25.25.25h0c.07,0,.13-.03.18-.07l4.57-4.57h5.5c1.1,0,2-.9,2-2v-4.53l-1-.22v4.75Z" />
  <path fill="#464646" d="M7.87,7.54l1.07-1.13c.06-.06.07-.15.03-.22-.04-.07-.12-.11-.2-.1l-1.53.29-1.13-1.07s-.02-.02-.03-.03c-.06-.03-.13-.04-.19,0-.07.04-.11.12-.1.2l.29,1.53-1.07,1.13c-.06.06-.07.15-.03.22.04.07.12.11.2.09l1.53-.29,1.13,1.07c.06.06.15.07.22.03.07-.04.11-.12.09-.2l-.29-1.53Z" />
</svg>
