<?xml version="1.0" encoding="UTF-8"?>
<svg xmlns="http://www.w3.org/2000/svg" viewBox="0 0 37.5 27">
  <g id="spectrum-Cloud-connected">
    <path fill="currentColor" d="M30.6,24c3.67,0,6.65-2.98,6.65-6.65,0-3.67-2.98-6.65-6.65-6.65h0c-.25,0-.5.01-.75.04,1.25-4.48-1.37-9.13-5.86-10.38s-9.13,1.37-10.38,5.86c-.11.38-.19.78-.24,1.17-3.79-1.02-7.68,1.23-8.7,5.02-.32,1.2-.32,2.47,0,3.67-2.17-.38-4.24,1.08-4.62,3.25-.38,2.17,1.08,4.24,3.25,4.62.23.04.45.06.68.06h26.61Z" />
    <rect fill="none" x="0" width="37.5" height="27" />
  </g>
</svg>
