<?xml version="1.0" encoding="UTF-8"?>
<svg xmlns="http://www.w3.org/2000/svg" viewBox="0 0 37.5 27">
  <g id="spectrum-Cloud-error">
    <path fill="currentColor" d="M29.44,10.7c-4.37,0-7.91,3.54-7.91,7.91s3.54,7.91,7.91,7.91,7.91-3.54,7.91-7.91h0c0-4.37-3.54-7.91-7.91-7.91ZM28.26,13.39c0-.06.16-.15.28-.19.29-.09.6-.12.9-.1.32-.02.64.02.95.1.12.05.3.15.3.19v1.51c-.04,1.74-.17,3.49-.4,5.21,0,.04-.03.27-.18.27h-1.28c-.1,0-.16-.21-.18-.27-.05-.42-.39-3.57-.39-5.21v-1.51ZM29.54,24.41c-.75,0-1.35-.61-1.35-1.35,0-.75.61-1.35,1.35-1.35.75,0,1.35.6,1.35,1.35,0,.75-.6,1.35-1.35,1.35h0Z"/><path fill="currentColor" d="M30.22,8.75c-.25-.02-.5-.03-.75-.03-5.43,0-9.82,4.4-9.82,9.82,0,1.94.58,3.84,1.65,5.45H4.07C1.71,23.88-.11,21.87,0,19.51v-.04c.17-2.43,2.05-4.39,4.47-4.65-.14-.56-.19-1.14-.15-1.72.11-3.75,3.23-6.72,6.98-6.63.77,0,1.54.11,2.29.32C14.55,2.94,17.94.19,21.9.06c4.39-.21,8.12,3.18,8.33,7.57.01.23.01.46,0,.69,0,.14,0,.29-.02.43Z"/>
    <rect fill="none" x="0" width="37.5" height="27" />
  </g>
</svg>
