<?xml version="1.0" encoding="UTF-8"?><svg id="Layer_1" xmlns="http://www.w3.org/2000/svg" viewBox="0 0 18 18"><defs><style>.cls-1{fill:rgba(255,19,220,0);}.cls-2{fill:#464646;}</style></defs><rect id="Canvas" class="cls-1" width="18" height="18"/><path class="cls-2" d="m12.87,15.75c-.06,0-.08-.04-.08-.09v-.77c0-.08.01-.1.05-.14.49-.45,1.22-1.1,1.89-1.82,1.02-1.1,1.25-1.84,1.25-2.51,0-.83-.45-1.32-1.34-1.32-.64,0-1.1.19-1.56.44-.06.04-.1.01-.1-.05v-1.04c0-.06.01-.1.08-.14.5-.29,1.14-.47,1.88-.47,1.65,0,2.4,1.12,2.4,2.42,0,.9-.29,1.81-1.21,2.85-.64.74-1.07,1.15-1.44,1.49.44-.04.94-.05,1.64-.05h1.29c.08,0,.1.04.09.09l-.23,1.05s-.04.08-.11.08h-4.49Z"/><path class="cls-2" d="m11.5,3.75c.14,0,.25-.11.25-.25v-1c0-.14-.11-.25-.25-.25h-3c-.14,0-.25.11-.25.25v1c0,.14.11.25.25.25h.75v4.5H2.75V3.75h.75c.14,0,.25-.11.25-.25v-1c0-.14-.11-.25-.25-.25H.5c-.14,0-.25.11-.25.25v1c0,.14.11.25.25.25h.75v10.5h-.75c-.14,0-.25.11-.25.25v1c0,.14.11.25.25.25h3c.14,0,.25-.11.25-.25v-1c0-.14-.11-.25-.25-.25h-.75v-4.5h6.5v4.5h-.75c-.14,0-.25.11-.25.25v1c0,.14.11.25.25.25h3c.14,0,.25-.11.25-.25v-1c0-.14-.11-.25-.25-.25h-.75V3.75h.75Z"/></svg>