<svg xmlns="http://www.w3.org/2000/svg" height="18" viewBox="0 0 18 18" width="18">
  <defs>
    <style>
      .cls-1 {
        fill: #464646;
      }
    </style>
  </defs>
  <path class="cls-1" d="M3,10.63c0-2.99,1.62-5.48,4.31-6.85l.81,1.44c-1.82,1.08-2.96,2.66-3.08,4.73.24-.12.51-.18.78-.18,1.23,0,2.09.9,2.09,2.15,0,1.38-.93,2.3-2.21,2.3-1.56,0-2.69-1.35-2.69-3.59ZM9.88,10.63c0-2.99,1.62-5.48,4.31-6.85l.81,1.44c-1.83,1.08-2.96,2.66-3.08,4.73.24-.12.51-.18.78-.18,1.23,0,2.09.9,2.09,2.15,0,1.38-.93,2.3-2.21,2.3-1.56,0-2.69-1.35-2.69-3.59Z"/>
</svg>
