<?xml version="1.0" encoding="UTF-8"?>
<svg id="Layer_1" data-name="Layer 1" xmlns="http://www.w3.org/2000/svg" viewBox="0 0 18 18">
  <defs>
    <style>
      .cls-1 {
        fill: rgba(255, 19, 220, 0);
      }

      .cls-2 {
        fill: #464646;
      }
    </style>
  </defs>
  <rect id="Canvas" class="cls-1" width="18" height="18"/>
  <path class="cls-2" d="m7.88,16h-.88v-2h.38c-.01-.17-.03-.33-.03-.5s.01-.33.03-.5h-.38v-2h.88c.16-.35.34-.68.56-1h-1.45v-2h3.76c2-1.01,4.4-.83,6.24.45V1.5c0-.28-.22-.5-.5-.5H1.5c-.28,0-.5.22-.5.5v15c0,.28.22.5.5.5h6.95c-.22-.32-.41-.65-.56-1ZM2,2h14v5H2V2Zm4,14H2v-2h4v2Zm0-3H2v-2h4v2Zm0-3H2v-2h4v2Z"/>
  <path class="cls-2" d="m13.5,9.05c-2.46,0-4.45,1.99-4.45,4.45s1.99,4.45,4.45,4.45,4.45-1.99,4.45-4.45-1.99-4.45-4.45-4.45Zm2.5,4.7c0,.14-.11.25-.25.25h-4.5c-.14,0-.25-.11-.25-.25v-.5c0-.14.11-.25.25-.25h4.5c.14,0,.25.11.25.25v.5Z"/>
</svg>