<?xml version="1.0" encoding="UTF-8"?>
<svg xmlns="http://www.w3.org/2000/svg" viewBox="0 0 37.5 27">
  <g id="spectrum-Cloud-offline">
    <path fill="currentColor" d="M29.44,10.7c-4.37,0-7.91,3.54-7.91,7.91s3.54,7.91,7.91,7.91,7.91-3.54,7.91-7.91h0c0-4.37-3.54-7.91-7.91-7.91ZM33.66,21.52c.39.39.4,1.03,0,1.42-.39.39-1.03.4-1.42,0,0,0,0,0,0,0l-2.65-2.65-2.65,2.65c-.39.39-1.03.39-1.42,0s-.39-1.03,0-1.42h0l2.65-2.65-2.61-2.64c-.2-.16-.32-.39-.33-.64.01-.58.47-1.04,1.04-1.07.27,0,.52.11.71.3l2.61,2.64,2.61-2.64c.19-.19.44-.29.71-.3.58.03,1.03.5,1.04,1.07-.02.25-.14.48-.33.64l-2.61,2.64,2.65,2.65Z"/><path fill="currentColor" d="M30.22,8.75c-.25-.02-.5-.03-.75-.03-5.43,0-9.82,4.4-9.82,9.82,0,1.94.58,3.84,1.65,5.45H4.07C1.71,23.88-.11,21.87,0,19.51v-.04c.17-2.43,2.05-4.39,4.47-4.65-.14-.56-.19-1.14-.15-1.72.11-3.75,3.23-6.72,6.98-6.63.77,0,1.54.11,2.29.32C14.55,2.94,17.94.19,21.9.06c4.39-.21,8.12,3.18,8.33,7.57.01.23.01.46,0,.69,0,.14,0,.29-.02.43Z"/>
    <rect fill="none" x="0" width="37.5" height="27" />
  </g>
</svg>
