<?xml version="1.0" encoding="UTF-8"?><svg id="Layer_1" xmlns="http://www.w3.org/2000/svg" viewBox="0 0 18 18"><defs><style>.cls-1{fill:#464646;}</style></defs><path class="cls-1" d="M17.84,13.95l-3.12,3.17c-.15.15-.39.15-.54,0h0s0,0,0,0l-.34-.35c-.14-.15-.14-.38,0-.53l2.65-2.7-2.65-2.69c-.14-.15-.14-.38,0-.53l.34-.35c.15-.15.39-.15.54,0h0s0,0,0,0l3.12,3.17c.22.23.22.58,0,.81Z"/><path class="cls-1" d="M4.51,13.14l3.12-3.17c.15-.15.39-.15.54,0h0s0,0,0,0l.34.35c.14.15.14.38,0,.53l-2.65,2.7,2.65,2.69c.14.15.14.38,0,.53l-.34.35c-.15.15-.39.15-.54,0h0s0,0,0,0l-3.12-3.17c-.22-.23-.22-.58,0-.81Z"/><path class="cls-1" d="M10.22,18h-.44c-.21,0-.38-.17-.38-.38,0-.03,0-.07.01-.1l2.36-8.78c.04-.17.2-.28.37-.28h.42c.21,0,.38.17.38.38,0,.03,0,.06-.01.1l-2.34,8.78c-.04.17-.2.28-.37.28Z"/><path class="cls-1" d="M16.5,1H1.5c-.28,0-.5.22-.5.5v14.94c0,.28.22.5.5.5h3.14l-.98-1h-1.66V2h14v6.46l1,1.02V1.5c0-.28-.22-.5-.5-.5Z"/></svg>