<?xml version="1.0" encoding="UTF-8"?><svg id="Layer_1" xmlns="http://www.w3.org/2000/svg" viewBox="0 0 18 18"><defs><style>.cls-1{fill:rgba(255,19,220,0);}.cls-2{fill:#464646;}</style></defs><rect id="Canvas" class="cls-1" width="18" height="18"/><path class="cls-2" d="m14.74,9.14c-.1.38-.27,1.16-.36,1.47,2.15.31,3.16,1.19,3.16,2.72s-1.05,2.52-2.77,2.52c-.71,0-1.26-.11-1.69-.31-.05-.02-.06-.08-.06-.15v-1.11c0-.06.04-.08.08-.06.48.26,1.03.42,1.64.42,1.07,0,1.46-.58,1.46-1.22,0-1.01-.92-1.51-3.01-1.75-.05-.01-.09-.02-.09-.09v-.59c.04-.26.76-2.92.78-2.99.02-.05.04-.07.1-.07h3.29c.07,0,.09.02.07.09l-.26,1.02c-.01.06-.04.09-.1.09h-2.22Z"/><path class="cls-2" d="m11.5,3.75c.14,0,.25-.11.25-.25v-1c0-.14-.11-.25-.25-.25h-3c-.14,0-.25.11-.25.25v1c0,.14.11.25.25.25h.75v4.5H2.75V3.75h.75c.14,0,.25-.11.25-.25v-1c0-.14-.11-.25-.25-.25H.5c-.14,0-.25.11-.25.25v1c0,.14.11.25.25.25h.75v10.5h-.75c-.14,0-.25.11-.25.25v1c0,.14.11.25.25.25h3c.14,0,.25-.11.25-.25v-1c0-.14-.11-.25-.25-.25h-.75v-4.5h6.5v4.5h-.75c-.14,0-.25.11-.25.25v1c0,.14.11.25.25.25h3c.14,0,.25-.11.25-.25v-1c0-.14-.11-.25-.25-.25h-.75V3.75h.75Z"/></svg>