<?xml version="1.0" encoding="UTF-8"?><svg id="Layer_1" xmlns="http://www.w3.org/2000/svg" viewBox="0 0 18 18"><defs><style>.cls-1{fill:rgba(255,19,220,0);}.cls-2{fill:#464646;}</style></defs><rect id="Canvas" class="cls-1" width="18" height="18"/><path class="cls-2" d="m17.21,8.98s0,.06-.06.06c-1.12.21-2.31.9-2.79,2.05.29-.17.71-.35,1.3-.35,1.26,0,2.21.92,2.21,2.46,0,1.38-.86,2.66-2.56,2.66s-2.59-1.44-2.59-3.09c0-2.8,2.14-4.57,4.44-4.94.05-.01.05.02.05.06v1.07Zm-3.09,3.27c-.01.1-.04.31-.04.54,0,1.12.49,1.88,1.27,1.88.71,0,1.12-.55,1.12-1.4s-.42-1.4-1.22-1.4c-.47,0-.86.16-1.14.39Z"/><path class="cls-2" d="m11.5,3.75c.14,0,.25-.11.25-.25v-1c0-.14-.11-.25-.25-.25h-3c-.14,0-.25.11-.25.25v1c0,.14.11.25.25.25h.75v4.5H2.75V3.75h.75c.14,0,.25-.11.25-.25v-1c0-.14-.11-.25-.25-.25H.5c-.14,0-.25.11-.25.25v1c0,.14.11.25.25.25h.75v10.5h-.75c-.14,0-.25.11-.25.25v1c0,.14.11.25.25.25h3c.14,0,.25-.11.25-.25v-1c0-.14-.11-.25-.25-.25h-.75v-4.5h6.5v4.5h-.75c-.14,0-.25.11-.25.25v1c0,.14.11.25.25.25h3c.14,0,.25-.11.25-.25v-1c0-.14-.11-.25-.25-.25h-.75V3.75h.75Z"/></svg>