<?xml version="1.0" encoding="UTF-8"?><svg id="Layer_1" xmlns="http://www.w3.org/2000/svg" viewBox="0 0 18 18"><defs><style>.cls-1{fill:rgba(255,19,220,0);}.cls-2{fill:#464646;}</style></defs><rect id="Canvas" class="cls-1" width="18" height="18"/><path class="cls-2" d="m14.06,12.29c-.05,0-.09-.01-.09-.09v-1.05c0-.08.01-.1.08-.1h.42c.86,0,1.4-.29,1.4-.97,0-.6-.4-1-1.27-1-.55,0-1.04.14-1.51.41-.06.02-.09.01-.09-.05v-1.05c0-.06.01-.09.06-.12.46-.24,1.07-.42,1.82-.42,1.49,0,2.34.86,2.34,2.04,0,.94-.61,1.48-1.06,1.67.59.19,1.41.72,1.41,1.94,0,1.47-1.19,2.39-2.85,2.39-.69,0-1.3-.11-1.76-.35-.06-.03-.07-.09-.07-.15v-1.14c0-.06.06-.08.1-.05.59.31,1.12.44,1.69.44,1.04,0,1.51-.47,1.51-1.16,0-.8-.59-1.17-1.57-1.17h-.55Z"/><path class="cls-2" d="m11.5,3.75c.14,0,.25-.11.25-.25v-1c0-.14-.11-.25-.25-.25h-3c-.14,0-.25.11-.25.25v1c0,.14.11.25.25.25h.75v4.5H2.75V3.75h.75c.14,0,.25-.11.25-.25v-1c0-.14-.11-.25-.25-.25H.5c-.14,0-.25.11-.25.25v1c0,.14.11.25.25.25h.75v10.5h-.75c-.14,0-.25.11-.25.25v1c0,.14.11.25.25.25h3c.14,0,.25-.11.25-.25v-1c0-.14-.11-.25-.25-.25h-.75v-4.5h6.5v4.5h-.75c-.14,0-.25.11-.25.25v1c0,.14.11.25.25.25h3c.14,0,.25-.11.25-.25v-1c0-.14-.11-.25-.25-.25h-.75V3.75h.75Z"/></svg>