<?xml version="1.0" encoding="UTF-8"?><svg id="Layer_1" xmlns="http://www.w3.org/2000/svg" viewBox="0 0 18 18"><defs><style>.cls-1{fill:rgba(255,19,220,0);}.cls-2{fill:#464646;}</style></defs><rect id="Canvas" class="cls-1" width="18" height="18"/><path class="cls-2" d="m14.5,3.75c.14,0,.25-.11.25-.25v-1c0-.14-.11-.25-.25-.25h-3c-.14,0-.25.11-.25.25v1c0,.14.11.25.25.25h.75v4.5h-6.5V3.75h.75c.14,0,.25-.11.25-.25v-1c0-.14-.11-.25-.25-.25h-3c-.14,0-.25.11-.25.25v1c0,.14.11.25.25.25h.75v10.5h-.75c-.14,0-.25.11-.25.25v1c0,.14.11.25.25.25h3c.14,0,.25-.11.25-.25v-1c0-.14-.11-.25-.25-.25h-.75v-4.5h6.5v4.5h-.75c-.14,0-.25.11-.25.25v1c0,.14.11.25.25.25h3c.14,0,.25-.11.25-.25v-1c0-.14-.11-.25-.25-.25h-.75V3.75h.75Z"/></svg>