<svg width="20" height="20" viewBox="0 0 20 20" fill="none" xmlns="http://www.w3.org/2000/svg">
<path d="M5.9668 7.98826C6.04688 7.98826 6.12793 7.97556 6.20801 7.94822C6.60059 7.81541 6.81055 7.38963 6.67676 6.99705C6.58008 6.71287 6.53125 6.37791 6.53125 6.00193C6.53125 3.70994 8.80078 3.09861 10.1426 3.09861C11.335 3.09861 12.9512 3.69627 13.6797 5.00486C13.7305 5.09861 13.8418 5.34373 13.8965 5.59763C13.9014 5.62131 13.917 5.63889 13.9241 5.66159C13.9399 5.71237 13.9602 5.75827 13.9859 5.80417C14.0088 5.8447 14.0325 5.88156 14.062 5.91672C14.094 5.95505 14.1289 5.98728 14.1677 6.01853C14.2046 6.04832 14.2412 6.07419 14.283 6.09617C14.3245 6.11839 14.3665 6.13426 14.4121 6.14842C14.4619 6.16404 14.5107 6.1743 14.5635 6.17894C14.5864 6.18114 14.6065 6.19237 14.6299 6.19237C14.657 6.19237 14.6799 6.17967 14.7065 6.17699C14.7329 6.17406 14.7585 6.18163 14.7852 6.17577C14.8091 6.17064 14.8267 6.15526 14.8494 6.14794C14.8997 6.13232 14.9453 6.11254 14.9905 6.08715C15.0315 6.06396 15.0689 6.04003 15.1045 6.01025C15.1421 5.97876 15.1738 5.94506 15.2046 5.90698C15.2346 5.86987 15.2605 5.83252 15.283 5.79052C15.3054 5.74852 15.3218 5.70556 15.3359 5.65942C15.3508 5.61132 15.3606 5.56445 15.3655 5.51367C15.3679 5.48901 15.3799 5.46753 15.3799 5.44238V2.14258C15.3799 1.72852 15.0439 1.39258 14.6299 1.39258C14.2158 1.39258 13.8799 1.72852 13.8799 2.14258V2.95801C12.7793 2.03369 11.3415 1.59863 10.1426 1.59863C7.68067 1.59863 5.03125 2.97656 5.03125 6.00195C5.03125 6.54199 5.10742 7.03906 5.25684 7.47949C5.36231 7.79199 5.6543 7.98826 5.9668 7.98826Z" fill="#292929"/>
<path d="M16.25 9.25H3.75C3.33594 9.25 3 9.58594 3 10C3 10.4141 3.33594 10.75 3.75 10.75H11.206C11.3362 10.7822 11.4658 10.8144 11.5957 10.8506C13.4736 11.3691 14.1924 12.1006 14.25 13.5488C14.25 13.5606 14.2783 14.7725 13.4228 15.6562C12.7725 16.3281 11.7568 16.6689 10.4053 16.6689C6.1748 16.6689 5.76074 13.5645 5.74609 13.4375C5.74072 13.3857 5.71704 13.3418 5.70214 13.294C5.69433 13.2703 5.69091 13.2456 5.68066 13.2229C5.55712 12.9277 5.26757 12.7273 4.92285 12.7686C4.64795 12.7974 4.43359 12.9766 4.32715 13.2114C4.3208 13.2246 4.31226 13.2361 4.30664 13.2498C4.28369 13.3096 4.27563 13.3726 4.26855 13.4377C4.26464 13.4695 4.25 13.4976 4.25 13.5303V16.9307C4.25 17.3447 4.58594 17.6807 5 17.6807C5.41406 17.6807 5.75 17.3447 5.75 16.9307V16.4942C6.65674 17.3999 8.09692 18.1689 10.4053 18.1689C12.1904 18.1689 13.5752 17.668 14.5195 16.6797C15.8154 15.3242 15.7519 13.5606 15.748 13.4902C15.6982 12.2236 15.2427 11.3652 14.6091 10.75H16.25C16.6641 10.75 17 10.4141 17 10C17 9.58595 16.6641 9.25 16.25 9.25Z" fill="#292929"/>
</svg>
