<svg width="20" height="20" viewBox="0 0 20 20" fill="none" xmlns="http://www.w3.org/2000/svg">
<path d="M5.31348 18.748C4.27246 18.748 3.23243 18.3516 2.44043 17.5596C0.856446 15.9756 0.856446 13.3974 2.44043 11.8125L6.3457 7.90722C7.93066 6.32324 10.5078 6.32421 12.0928 7.90722C12.3096 8.12499 12.5 8.36425 12.6592 8.61718C12.8799 8.96777 12.7744 9.43066 12.4238 9.65136C12.0713 9.87304 11.6103 9.76562 11.3896 9.41601C11.2891 9.25585 11.168 9.10449 11.0303 8.96679C10.0312 7.96777 8.40527 7.96874 7.40625 8.96777L3.50098 12.873C2.50196 13.873 2.50196 15.5 3.50098 16.499C4.50196 17.5 6.12793 17.4961 7.12696 16.499L9.07911 14.5469C9.37208 14.2539 9.84669 14.2539 10.1397 14.5469C10.4326 14.8398 10.4326 15.3144 10.1397 15.6074L8.18751 17.5596C7.39552 18.3516 6.35449 18.7471 5.31348 18.748ZM13.6543 12.0928L17.5596 8.1875C19.1435 6.60254 19.1435 4.02441 17.5596 2.44043C15.9756 0.856446 13.3965 0.856446 11.8125 2.44043L9.86035 4.39258C9.56738 4.68555 9.56738 5.16016 9.86035 5.45313C10.1533 5.7461 10.6279 5.7461 10.9209 5.45313L12.873 3.50098C13.8721 2.50293 15.498 2.50098 16.499 3.50098C17.498 4.5 17.498 6.12696 16.499 7.12696L12.5938 11.0322C11.5947 12.0312 9.96876 12.0322 8.96974 11.0332C8.83204 10.8955 8.71095 10.7441 8.61036 10.584C8.38966 10.2344 7.92872 10.127 7.57618 10.3486C7.22559 10.5693 7.12013 11.0322 7.34083 11.3828C7.50001 11.6357 7.69044 11.875 7.90724 12.0928C8.70021 12.8848 9.74025 13.2813 10.7813 13.2813C11.8213 13.2813 12.8623 12.8848 13.6543 12.0928Z" fill="#292929"/>
</svg>
