<?xml version="1.0" encoding="UTF-8"?>
<svg id="icon" width="20" height="20" viewBox="0 0 20 20" xmlns="http://www.w3.org/2000/svg">
<path d="M5.75 17H3.25C2.00928 17 1 15.9907 1 14.75V5.25C1 4.00928 2.00928 3 3.25 3H5.75C6.99072 3 8 4.00928 8 5.25V14.75C8 15.9907 6.99072 17 5.75 17ZM3.25 4.5C2.83643 4.5 2.5 4.83643 2.5 5.25V14.75C2.5 15.1636 2.83643 15.5 3.25 15.5H5.75C6.16357 15.5 6.5 15.1636 6.5 14.75V5.25C6.5 4.83643 6.16357 4.5 5.75 4.5H3.25Z" fill="currentColor"/>
<path d="M16.75 17H14.25C13.0093 17 12 15.9907 12 14.75V5.25C12 4.00928 13.0093 3 14.25 3H16.75C17.9907 3 19 4.00928 19 5.25V14.75C19 15.9907 17.9907 17 16.75 17ZM14.25 4.5C13.8364 4.5 13.5 4.83643 13.5 5.25V14.75C13.5 15.1636 13.8364 15.5 14.25 15.5H16.75C17.1636 15.5 17.5 15.1636 17.5 14.75V5.25C17.5 4.83643 17.1636 4.5 16.75 4.5H14.25Z" fill="currentColor"/>
<path d="M10 19C9.58594 19 9.25 18.6641 9.25 18.25V1.75C9.25 1.33594 9.58594 1 10 1C10.4141 1 10.75 1.33594 10.75 1.75V18.25C10.75 18.6641 10.4141 19 10 19Z" fill="currentColor"/>
</svg>
