<svg width="20" height="20" viewBox="0 0 20 20" fill="none" xmlns="http://www.w3.org/2000/svg">
<path d="M15.3926 11.8223C15.0674 10.2217 13.9541 8.91894 12.4775 8.24609C13.0976 7.32617 13.3271 6.20507 13.1094 5.1123C12.749 3.30859 11.1182 2 9.23242 2H5.125C4.50391 2 4 2.50391 4 3.125V16.875C4 17.4961 4.50391 18 5.125 18H10.3223C11.8916 18 13.3584 17.3066 14.3477 16.0977C15.3213 14.9062 15.7021 13.3486 15.3926 11.8223ZM6.24999 4.24999H9.23241C10.0498 4.24999 10.7519 4.79784 10.9023 5.5537C11.0146 6.11327 10.8672 6.6914 10.499 7.14159C10.1816 7.52831 9.74413 7.74999 9.29979 7.74999H6.24999V4.24999ZM12.6055 14.6738C12.0459 15.3574 11.2139 15.75 10.3223 15.75H6.24999V9.99999H9.29979C9.31053 9.99901 9.32127 9.99901 9.33104 9.99999H10.1777C11.6543 9.99999 12.9209 10.9541 13.1875 12.2695C13.3643 13.1435 13.1582 13.998 12.6055 14.6738Z" fill="#292929"/>
</svg>
