<?xml version="1.0" encoding="UTF-8"?>
<svg id="icon" xmlns="http://www.w3.org/2000/svg" width="20" height="20" viewBox="0 0 18 18">
  <rect height="2" rx="0.5" width="12" x="4" y="14" fill="currentColor"/>
  <rect height="2" rx="0.5" width="6" x="10" y="10" fill="currentColor"/>
  <rect height="2" rx="0.5" width="6" x="10" y="6" fill="currentColor"/>
  <rect height="2" rx="0.5" width="12" x="4" y="2" fill="currentColor"/>
  <path fill="currentColor" d="M4,7V5.336a.25.25,0,0,1,.433-.1705L8,9,4.433,12.8345A.25.25,0,0,1,4,12.664V11H.5a.5.5,0,0,1-.5-.5v-3A.5.5,0,0,1,.5,7Z"/>
</svg>
