<svg width="20" height="20" viewBox="0 0 20 20" fill="none" xmlns="http://www.w3.org/2000/svg">
<path d="M14.2998 2H9.29981C8.88575 2 8.54981 2.33594 8.54981 2.75C8.54981 3.16406 8.88575 3.5 9.29981 3.5H10.9414L7.44922 16.5H5.66211C5.24805 16.5 4.91211 16.8359 4.91211 17.25C4.91211 17.6641 5.24805 18 5.66211 18H10.6621C11.0762 18 11.4121 17.6641 11.4121 17.25C11.4121 16.8359 11.0762 16.5 10.6621 16.5H9.00293L12.4951 3.5H14.2998C14.7139 3.5 15.0498 3.16406 15.0498 2.75C15.0498 2.33594 14.7139 2 14.2998 2Z" fill="#292929"/>
</svg>
