<svg width="20" height="20" viewBox="0 0 20 20" fill="none" xmlns="http://www.w3.org/2000/svg">
<path d="M5.5 14.5C5.30762 14.5 5.11621 14.4268 4.96973 14.2803L1.21973 10.5303C0.926757 10.2373 0.926757 9.7627 1.21973 9.46973L4.96973 5.71973C5.2627 5.42676 5.73731 5.42676 6.03028 5.71973C6.32325 6.0127 6.32325 6.48731 6.03028 6.78028L2.81055 10L6.03028 13.2197C6.32325 13.5127 6.32325 13.9873 6.03028 14.2803C5.8838 14.4268 5.69238 14.5 5.5 14.5Z" fill="#292929"/>
<path d="M14.5 14.5C14.3076 14.5 14.1162 14.4268 13.9697 14.2803C13.6768 13.9873 13.6768 13.5127 13.9697 13.2197L17.1895 10L13.9697 6.78028C13.6768 6.48731 13.6768 6.0127 13.9697 5.71973C14.2627 5.42676 14.7373 5.42676 15.0303 5.71973L18.7803 9.46973C19.0732 9.7627 19.0732 10.2373 18.7803 10.5303L15.0303 14.2803C14.8838 14.4268 14.6924 14.5 14.5 14.5Z" fill="#292929"/>
<path d="M8.22798 18.0001C8.16939 18.0001 8.10982 17.9933 8.05122 17.9796C7.6479 17.8819 7.40083 17.4767 7.49751 17.0743L10.9975 2.57433C11.0952 2.17101 11.5073 1.92882 11.9028 2.02062C12.3061 2.11828 12.5532 2.52355 12.4565 2.92589L8.95649 17.4259C8.87348 17.7696 8.56588 18.0001 8.22798 18.0001Z" fill="#292929"/>
</svg>
