<svg width="20" height="20" viewBox="0 0 20 20" fill="none" xmlns="http://www.w3.org/2000/svg">
<path d="M16.25 19H3.75C3.33594 19 3 18.6641 3 18.25C3 17.8359 3.33594 17.5 3.75 17.5H16.25C16.6641 17.5 17 17.8359 17 18.25C17 18.6641 16.6641 19 16.25 19Z" fill="#292929"/>
<path d="M10 16C7.38086 16 5.25 13.8691 5.25 11.25V2.75C5.25 2.33594 5.58594 2 6 2C6.41406 2 6.75 2.33594 6.75 2.75V11.25C6.75 13.042 8.20801 14.5 10 14.5C11.792 14.5 13.25 13.042 13.25 11.25V2.75C13.25 2.33594 13.5859 2 14 2C14.4141 2 14.75 2.33594 14.75 2.75V11.25C14.75 13.8691 12.6191 16 10 16Z" fill="#292929"/>
</svg>
