<svg width="20" height="20" viewBox="0 0 20 20" fill="none" xmlns="http://www.w3.org/2000/svg">
    <path d="M8.99901 18.7285C8.63963 18.7285 8.28221 18.6304 7.9619 18.4356C7.35936 18.0698 6.99999 17.4307 6.99999 16.7261V10.4902C6.99999 10.3042 6.93163 10.1265 6.80761 9.98878L2.62792 5.34521C2.08983 4.75488 1.95409 3.92871 2.27929 3.19287C2.60351 2.45703 3.30468 2 4.10937 2H15.8906C16.6953 2 17.3965 2.45703 17.7207 3.19287C18.0459 3.92871 17.9102 4.75488 17.3682 5.34863L13.1924 9.98877C13.0684 10.1265 13 10.3042 13 10.4902V15.5356C13 16.3794 12.5352 17.1445 11.7871 17.5327L9.92188 18.501C9.62989 18.6528 9.31346 18.7285 8.99901 18.7285ZM4.10937 3.5C3.81445 3.5 3.6914 3.7085 3.65136 3.79834C3.61132 3.88818 3.54101 4.12012 3.73925 4.33789L7.92284 8.98486C8.29491 9.39843 8.49999 9.9331 8.49999 10.4902V16.7261C8.49999 16.98 8.66796 17.1094 8.74022 17.1533C8.81249 17.1978 9.00584 17.2856 9.23045 17.1699L11.0957 16.2012C11.3457 16.0718 11.5 15.8169 11.5 15.5356V10.4902C11.5 9.9331 11.7051 9.39843 12.0771 8.98486L16.2568 4.34131C16.459 4.12012 16.3887 3.88819 16.3486 3.79834C16.3086 3.70849 16.1855 3.5 15.8906 3.5H4.10937Z" fill="#646464"/>
</svg>
