<?xml version="1.0" encoding="UTF-8"?><svg id="Layer_1" xmlns="http://www.w3.org/2000/svg" xmlns:xlink="http://www.w3.org/1999/xlink" viewBox="0 0 80 60"><defs><style>.cls-1{fill:none;}.cls-2{fill:url(#radial-gradient-3);}.cls-3{fill:url(#radial-gradient-2);}.cls-4{fill:url(#radial-gradient);}.cls-5{clip-path:url(#clippath);}</style><clipPath id="clippath"><path class="cls-1" d="M68.93,60h-7.5c-1.77,0-3.21-1.44-3.21-3.21s1.44-3.21,3.21-3.21h7.5c1.77,0,3.22-1.44,3.22-3.21v-27.86c0-1.77-1.44-3.21-3.22-3.21h-7.5c-1.77,0-3.21-1.44-3.21-3.21s1.44-3.21,3.21-3.21h7.5c5.32,0,9.64,4.33,9.64,9.64v27.86c0,5.32-4.33,9.64-9.64,9.64ZM35.71,21.43c2.37,0,4.29-1.92,4.29-4.29s-1.92-4.29-4.29-4.29-4.29,1.92-4.29,4.29,1.92,4.29,4.29,4.29ZM18.57,34.29c2.37,0,4.29-1.92,4.29-4.29s-1.92-4.29-4.29-4.29-4.29,1.92-4.29,4.29,1.92,4.29,4.29,4.29ZM18.57,21.43c2.37,0,4.29-1.92,4.29-4.29s-1.92-4.29-4.29-4.29-4.29,1.92-4.29,4.29,1.92,4.29,4.29,4.29ZM43.21,0H11.07C5.75,0,1.43,4.33,1.43,9.64v40.71c0,5.32,4.33,9.64,9.64,9.64h32.14c5.32,0,9.64-4.33,9.64-9.64V9.64c0-5.32-4.33-9.64-9.64-9.64ZM32.49,53.57h-10.71v-4.29c0-1.77,1.44-3.21,3.21-3.21h4.28c1.77,0,3.21,1.44,3.21,3.21v4.29ZM46.43,50.36c0,1.77-1.44,3.21-3.21,3.21h-4.29v-4.29c0-5.32-4.33-9.64-9.64-9.64h-4.28c-5.32,0-9.64,4.33-9.64,9.64v4.29h-4.29c-1.77,0-3.21-1.44-3.21-3.21V9.64c0-1.77,1.44-3.21,3.21-3.21h32.14c1.77,0,3.21,1.44,3.21,3.21v40.71ZM35.71,34.29c2.37,0,4.29-1.92,4.29-4.29s-1.92-4.29-4.29-4.29-4.29,1.92-4.29,4.29,1.92,4.29,4.29,4.29ZM61.43,34.29c2.37,0,4.29-1.92,4.29-4.29s-1.92-4.29-4.29-4.29-4.29,1.92-4.29,4.29,1.92,4.29,4.29,4.29ZM61.43,47.14c2.37,0,4.29-1.92,4.29-4.29s-1.92-4.29-4.29-4.29-4.29,1.92-4.29,4.29,1.92,4.29,4.29,4.29Z"/></clipPath><radialGradient id="radial-gradient" cx="-921.03" cy="615.06" fx="-921.03" fy="615.06" r="1" gradientTransform="translate(61857.87 -38944.74) rotate(-66) scale(66 -66)" gradientUnits="userSpaceOnUse"><stop offset="0" stop-color="#ff9300"/><stop offset=".12" stop-color="#ff9300"/><stop offset="1" stop-color="#ff9300" stop-opacity="0"/></radialGradient><radialGradient id="radial-gradient-2" cx="-912.13" cy="608.71" fx="-912.13" fy="608.71" r="1" gradientTransform="translate(49554.47 -6845.48) rotate(-41.54) scale(45.6 -45.47)" gradientUnits="userSpaceOnUse"><stop offset="0" stop-color="red" stop-opacity="1"/><stop offset="1" stop-color="red" stop-opacity="0"/></radialGradient><radialGradient id="radial-gradient-3" cx="-906.45" cy="619.22" fx="-906.45" fy="619.22" r="1" gradientTransform="translate(65484.79 28984.33) scale(72.25 -46.78)" gradientUnits="userSpaceOnUse"><stop offset="0" stop-color="#c0a0ff"/><stop offset=".47" stop-color="#c1a0ff" stop-opacity=".64"/><stop offset="1" stop-color="#c0a0ff" stop-opacity="0"/></radialGradient></defs><g class="cls-5"><path class="cls-4" d="M46.58,7.96C10.28,7.96-19.14,37.38-19.14,73.68s29.42,65.72,65.72,65.72,65.72-29.42,65.72-65.72S82.87,7.96,46.58,7.96Z"/><path class="cls-3" d="M98.25,47.97c18.77-16.63,20.54-45.28,3.96-64-16.58-18.72-45.24-20.41-64.01-3.79-18.77,16.63-20.54,45.28-3.96,64,16.58,18.72,45.24,20.41,64.01,3.79Z"/><path class="cls-2" d="M6.05-26.12c-5.83-3.65-13.22-3.67-19.08-.06L-71.59,9.98c-5.74,3.54-5.74,11.9-.02,15.46L-13.43,61.56c5.85,3.63,13.24,3.62,19.08-.01L63.7,25.4c5.7-3.55,5.71-11.86.02-15.42L6.05-26.12Z"/></g></svg>