<?xml version="1.0" encoding="UTF-8"?><svg id="Layer_1" xmlns="http://www.w3.org/2000/svg" viewBox="0 0 18 18"><defs><style>.cls-1{fill:rgba(255,19,220,0);}.cls-1,.cls-2{stroke-width:0px;}.cls-2{fill:#464646;}</style></defs><rect id="Canvas" class="cls-1" y="0" width="18" height="18"/><polygon class="cls-2" points="10 1 10 6 15 6 10 1"/><path class="cls-2" d="m7.75,11.25l2.07,2.08.84-.84c.21-.21.56-.21.78,0l1.45,1.45v-4.77h-7.69v3.86l1.77-1.77c.21-.21.56-.21.78,0Zm3.54-1.77c.44,0,.8.36.8.8s-.36.8-.8.8-.8-.36-.8-.8.36-.8.8-.8Z"/><path class="cls-2" d="m9,6.5V1H3.5c-.28,0-.5.22-.5.5v15c0,.28.22.5.5.5h11c.28,0,.5-.22.5-.5V7h-5.5c-.28,0-.5-.22-.5-.5Zm4.44,2.38v6.04c0,.15-.12.27-.27.27H4.93c-.15,0-.27-.12-.27-.27v-6.04c0-.15.12-.27.27-.27h8.24c.15,0,.27.12.27.27Z"/></svg>