<?xml version="1.0" encoding="UTF-8"?>
<svg xmlns="http://www.w3.org/2000/svg" viewBox="0 0 18 18">
    <path fill="#464646"
        d="M14.62,9h-.75c-.21,0-.38.17-.38.38v4.12H4.5V4.5h4.12c.21,0,.38-.17.38-.38v-.75c0-.21-.17-.38-.38-.38H3.38c-.21,0-.38.17-.38.38v11.25c0,.21.17.38.38.38h11.25c.21,0,.38-.17.38-.38v-5.25c0-.21-.17-.38-.38-.38Z" />
    <path fill="#464646"
        d="M14.81,3h-4.03c-.16,0-.28.14-.28.3,0,.08.03.15.09.21l1.42,1.42-2.64,2.64c-.15.15-.15.38,0,.53h0s0,0,0,0l.53.53c.15.15.38.15.53,0l2.64-2.64,1.42,1.42c.06.06.13.09.21.09.16,0,.29-.12.3-.28V3.19c0-.1-.08-.19-.19-.19Z" />
</svg>
